<?xml version="1.0" standalone="no"?>
<!DOCTYPE svg PUBLIC "-//W3C//DTD SVG 1.1//EN" "http://www.w3.org/Graphics/SVG/1.1/DTD/svg11.dtd" >
<svg xmlns="http://www.w3.org/2000/svg">
<metadata>
<json>
<![CDATA[
{
	"fontFamily": "weoicons",
	"majorVersion": 1,
	"minorVersion": 1,
	"fontURL": "https://github.com/a-u-s-e-r-n-a-m-e/weoicons",
	"description": "A collection of 400+ icons\nFont generated by IcoMoon.",
	"copyright": "2021",
	"license": "GPL-3.0-only",
	"licenseURL": "https://www.gnu.org/licenses/gpl-3.0.en.html",
	"version": "Version 1.1",
	"fontId": "weoicons",
	"psName": "weoicons",
	"subFamily": "Regular",
	"fullName": "weoicons"
}
]]>
</json>
</metadata>
<defs>
<font id="weoicons" horiz-adv-x="1024">
<font-face units-per-em="1024" ascent="960" descent="-64" />
<missing-glyph horiz-adv-x="1024" />
<glyph unicode="&#x20;" horiz-adv-x="512" d="" />
<glyph unicode="&#xe901;" glyph-name="cloud-alert" data-tags="cloud_alert" d="M1024 320c0-117.82-95.514-213.333-213.333-213.333h-614.4c-4.714 0-9.249 0.764-13.488 2.176-104.050 14.923-182.779 104.418-182.779 211.157 0 68.322 32.418 130.999 85.333 170.69 0.013 94.246 76.418 170.643 170.667 170.643 63.134 104.144 174.869 170.667 298.667 170.667 179.996 0 327.452-139.324 340.407-316.013 76.828-33.071 128.926-109.325 128.926-195.987zM810.667 192c70.692 0 128 57.308 128 128 0 58.754-39.938 109.566-96.004 123.979-19.13 4.919-32.384 22.325-32.036 42.076 0.034 2.302 0.034 2.302 0.041 4.612 0 141.385-114.615 256-256 256-100.855 0-191.012-58.837-232.563-148.819-8.386-18.163-28.269-28.060-47.817-23.802-5.943 1.293-12.058 1.954-18.287 1.954-47.128 0-85.333-38.206-85.333-85.333 0-4.939 0.415-9.805 1.232-14.571 3.049-17.786-5.42-35.565-21.151-44.405-40.1-22.534-65.414-64.875-65.414-111.691 0-65.92 50.084-120.907 115.149-127.366 1.435-0.143 2.848-0.354 4.234-0.634h605.95zM554.667 576c0 23.564-19.103 42.667-42.667 42.667s-42.667-19.103-42.667-42.667v-128c0-23.564 19.103-42.667 42.667-42.667s42.667 19.103 42.667 42.667zM512 277.333c23.564 0 42.667 19.102 42.667 42.667s-19.103 42.667-42.667 42.667c-23.564 0-42.667-19.102-42.667-42.667s19.103-42.667 42.667-42.667z" />
<glyph unicode="&#xe902;" glyph-name="cloud-disconnect" data-tags="cloud_disconnect" d="M1024 320c0-117.82-95.514-213.333-213.333-213.333h-614.4c-4.714 0-9.249 0.764-13.488 2.176-104.050 14.923-182.779 104.418-182.779 211.157 0 68.322 32.418 130.999 85.333 170.69 0.013 94.246 76.418 170.643 170.667 170.643 63.134 104.144 174.869 170.667 298.667 170.667 179.996 0 327.452-139.324 340.407-316.013 76.828-33.071 128.926-109.325 128.926-195.987zM810.667 192c70.692 0 128 57.308 128 128 0 58.754-39.938 109.566-96.004 123.979-19.13 4.919-32.384 22.325-32.036 42.076 0.034 2.302 0.034 2.302 0.041 4.612 0 141.385-114.615 256-256 256-100.855 0-191.012-58.837-232.563-148.819-8.386-18.163-28.269-28.060-47.817-23.802-5.943 1.293-12.058 1.954-18.287 1.954-47.128 0-85.333-38.206-85.333-85.333 0-4.939 0.415-9.805 1.232-14.571 3.049-17.786-5.42-35.565-21.151-44.405-40.1-22.534-65.414-64.875-65.414-111.691 0-65.92 50.084-120.907 115.149-127.366 1.435-0.143 2.848-0.354 4.234-0.634h605.95z" />
<glyph unicode="&#xe903;" glyph-name="cloud-download" data-tags="cloud_download" d="M554.667 832c179.996 0 327.452-139.324 340.407-316.013 76.828-33.071 128.926-109.325 128.926-195.987 0-117.82-95.514-213.333-213.333-213.333-23.565 0-42.667 19.102-42.667 42.667s19.102 42.667 42.667 42.667c70.692 0 128 57.308 128 128 0 58.754-39.938 109.566-96.004 123.979-19.13 4.919-32.384 22.325-32.036 42.076 0.034 2.302 0.034 2.302 0.041 4.612 0 141.385-114.615 256-256 256-100.855 0-191.012-58.837-232.563-148.819-8.386-18.163-28.269-28.060-47.817-23.802-5.943 1.293-12.058 1.954-18.287 1.954-47.128 0-85.333-38.206-85.333-85.333 0-4.939 0.415-9.805 1.232-14.571 3.049-17.786-5.42-35.565-21.151-44.405-40.1-22.534-65.414-64.875-65.414-111.691 0-65.92 50.084-120.907 113.038-127.209l17.066-0.843c23.537-1.163 41.673-21.184 40.512-44.719-1.163-23.537-21.184-41.673-44.72-40.512l-19.178 1.001c-108.609 10.782-192.051 102.394-192.051 212.282 0 68.322 32.418 130.999 85.333 170.69 0.013 94.246 76.418 170.643 173.647 170.618 60.154 104.169 171.889 170.692 295.686 170.692zM554.667 292.902v0l55.164 55.164c16.661 16.663 43.678 16.663 60.339 0 16.663-16.661 16.663-43.678 0-60.339l-128-128c-8.331-8.331-19.251-12.497-30.17-12.497s-21.839 4.166-30.17 12.497l-128 128c-16.663 16.661-16.663 43.678 0 60.339 16.661 16.663 43.678 16.663 60.339 0l55.164-55.164v238.327c0 23.565 19.102 42.667 42.667 42.667s42.667-19.102 42.667-42.667v-238.327z" />
<glyph unicode="&#xe904;" glyph-name="cloud-error" data-tags="cloud_error" d="M998.4 327.467c0-111.929-90.738-202.667-202.667-202.667h-583.68c-4.478 0-8.786 0.726-12.814 2.067-98.848 14.177-173.64 99.197-173.64 200.599 0 64.906 30.797 124.449 81.067 162.156 0.013 89.534 72.597 162.111 162.133 162.111 59.977 98.936 166.126 162.133 283.733 162.133 170.996 0 311.079-132.358 323.387-300.212 72.986-31.417 122.48-103.859 122.48-186.188zM795.733 205.867c67.158 0 121.6 54.442 121.6 121.6 0 55.816-37.941 104.088-91.204 117.78-18.173 4.673-30.765 21.209-30.434 39.972 0.032 2.187 0.032 2.187 0.039 4.382 0 134.315-108.885 243.2-243.2 243.2-95.813 0-181.462-55.895-220.935-141.378-7.967-17.255-26.855-26.657-45.426-22.612-5.646 1.228-11.455 1.856-17.373 1.856-44.772 0-81.067-36.296-81.067-81.067 0-4.692 0.394-9.315 1.171-13.842 2.896-16.896-5.149-33.787-20.094-42.185-38.095-21.408-62.144-61.631-62.144-106.106 0-62.624 47.58-114.861 109.392-120.998 1.363-0.136 2.705-0.336 4.023-0.602h575.652zM651.285 541.65c16.662-16.662 16.662-43.677 0-60.34l-211.189-211.189c-16.662-16.662-43.677-16.662-60.34 0s-16.662 43.677 0 60.34l211.189 211.189c16.662 16.662 43.677 16.662 60.34 0zM379.755 541.65c16.662 16.662 43.677 16.662 60.34 0l211.189-211.189c16.662-16.662 16.662-43.677 0-60.34s-43.677-16.662-60.34 0l-211.189 211.189c-16.662 16.662-16.662 43.677 0 60.34z" />
<glyph unicode="&#xe905;" glyph-name="cloud-synk" data-tags="cloud_synk" d="M975.55 320.017c-0.401-0.011-0.804-0.017-1.207-0.017h-77.779c-23.563 0-42.667 19.102-42.667 42.667s19.104 42.667 42.667 42.667h19.484c-29.594 51.456-85.278 85.333-148.196 85.333-54.534 0-104.715-25.7-136.779-68.574-14.114-18.871-40.853-22.726-59.723-8.614-18.871 14.114-22.726 40.851-8.614 59.723 48.009 64.19 123.392 102.799 205.116 102.799 122.718 0 227.337-86.27 251.040-204.979 4.614-23.108-10.379-45.581-33.487-50.195-3.315-0.661-6.615-0.919-9.854-0.809v0zM552.766 318.752c3.294 0.815 6.737 1.248 10.283 1.248h76.802c23.565 0 42.667-19.102 42.667-42.667s-19.102-42.667-42.667-42.667h-19.876c29.728-51.422 85.333-85.333 147.876-85.333 54.065 0 103.859 25.257 135.977 67.509 14.259 18.761 41.028 22.409 59.787 8.149 18.761-14.259 22.409-41.026 8.149-59.787-48.085-63.262-122.893-101.205-203.913-101.205-121.95 0-226.259 85.897-250.684 203.887-4.777 23.074 10.059 45.653 33.133 50.43 0.823 0.171 1.645 0.316 2.466 0.435v0zM80.947 309.387c0 44.475 24.049 84.698 62.144 106.106 14.944 8.399 22.99 25.289 20.094 42.185-0.776 4.528-1.171 9.15-1.171 13.842 0 44.771 36.295 81.067 81.067 81.067 5.918 0 11.726-0.628 17.373-1.856 18.57-4.045 37.459 5.356 45.426 22.612 39.473 85.483 125.122 141.378 220.935 141.378 113.426 0 211.077-78.302 236.727-187.185 5.134-21.791 26.959-35.292 48.747-30.161 21.791 5.134 35.292 26.959 30.161 48.747-34.228 145.294-164.389 249.665-315.635 249.665-117.607 0-223.756-63.197-280.902-162.158-0.944 0.016-1.887 0.024-2.831 0.024-89.536 0-162.121-72.577-162.133-162.111-50.27-37.706-81.067-97.25-81.067-162.156 0-104.394 79.27-191.425 182.449-201.668l3.949-0.199c74.343-0.101 133.594-0.201 188.602-0.31 30.104-0.059 110.83-0.233 116.971-0.247 29.046-0.059 74.109-0.103 101.718-0.14 22.387-0.030 40.558 18.092 40.588 40.477 0.030 22.387-18.092 40.56-40.477 40.59-27.591 0.036-72.636 0.081-101.664 0.14-6.133 0.014-86.865 0.188-116.977 0.247-54.501 0.107-113.163 0.207-186.53 0.308-60.92 6.974-107.564 58.798-107.564 120.801z" />
<glyph unicode="&#xe906;" glyph-name="cloud-upload" data-tags="cloud_upload" d="M554.667 832c179.996 0 327.452-139.324 340.407-316.013 76.828-33.071 128.926-109.325 128.926-195.987 0-117.82-95.514-213.333-213.333-213.333-23.565 0-42.667 19.102-42.667 42.667s19.102 42.667 42.667 42.667c70.692 0 128 57.308 128 128 0 58.754-39.938 109.566-96.004 123.979-19.13 4.919-32.384 22.325-32.036 42.076 0.034 2.302 0.034 2.302 0.041 4.612 0 141.385-114.615 256-256 256-100.855 0-191.012-58.837-232.563-148.819-8.386-18.163-28.269-28.060-47.817-23.802-5.943 1.293-12.058 1.954-18.287 1.954-47.128 0-85.333-38.206-85.333-85.333 0-4.939 0.415-9.805 1.232-14.571 3.049-17.786-5.42-35.565-21.151-44.405-40.1-22.534-65.414-64.875-65.414-111.691 0-65.92 50.084-120.907 113.038-127.209l17.066-0.843c23.537-1.163 41.673-21.184 40.512-44.719-1.163-23.537-21.184-41.673-44.72-40.512l-19.178 1.001c-108.609 10.782-192.051 102.394-192.051 212.282 0 68.322 32.418 130.999 85.333 170.69 0.013 94.246 76.418 170.643 173.647 170.618 60.154 104.169 171.889 170.692 295.686 170.692zM554.667 259.661v-238.327c0-23.565-19.102-42.667-42.667-42.667s-42.667 19.102-42.667 42.667v238.327l-55.164-55.164c-16.661-16.663-43.678-16.663-60.339 0-16.663 16.661-16.663 43.678 0 60.339l128 128c8.331 8.331 19.251 12.497 30.17 12.497s21.839-4.166 30.17-12.497l128-128c16.663-16.661 16.663-43.678 0-60.339-16.661-16.663-43.678-16.663-60.339 0l-55.164 55.164z" />
<glyph unicode="&#xe907;" glyph-name="cloud-waiting" data-tags="cloud_waiting" d="M1024 320c0-117.82-95.514-213.333-213.333-213.333h-614.4c-4.714 0-9.249 0.764-13.488 2.176-104.050 14.923-182.779 104.418-182.779 211.157 0 68.322 32.418 130.999 85.333 170.69 0.013 94.246 76.418 170.643 170.667 170.643 63.134 104.144 174.869 170.667 298.667 170.667 179.996 0 327.452-139.324 340.407-316.013 76.828-33.071 128.926-109.325 128.926-195.987zM810.667 192c70.692 0 128 57.308 128 128 0 58.754-39.938 109.566-96.004 123.979-19.13 4.919-32.384 22.325-32.036 42.076 0.034 2.302 0.034 2.302 0.041 4.612 0 141.385-114.615 256-256 256-100.855 0-191.012-58.837-232.563-148.819-8.386-18.163-28.269-28.060-47.817-23.802-5.943 1.293-12.058 1.954-18.287 1.954-47.128 0-85.333-38.206-85.333-85.333 0-4.939 0.415-9.805 1.232-14.571 3.049-17.786-5.42-35.565-21.151-44.405-40.1-22.534-65.414-64.875-65.414-111.691 0-65.92 50.084-120.907 115.149-127.366 1.435-0.143 2.848-0.354 4.234-0.634h605.95zM426.667 384c0-35.346-28.654-64-64-64s-64 28.654-64 64c0 35.346 28.654 64 64 64s64-28.654 64-64zM597.333 384c0-35.346-28.654-64-64-64s-64 28.654-64 64c0 35.346 28.654 64 64 64s64-28.654 64-64zM769.423 384c0-35.346-28.654-64-64-64s-64 28.654-64 64c0 35.346 28.654 64 64 64s64-28.654 64-64z" />
<glyph unicode="&#xe908;" glyph-name="element-battery" data-tags="element_battery" d="M384 832c0 47.128 38.206 85.333 85.333 85.333h85.333c47.127 0 85.333-38.205 85.333-85.333h42.667c70.692 0 128-57.308 128-128v-554.667c0-70.692-57.308-128-128-128h-341.333c-70.692 0-128 57.308-128 128v554.667c0 70.692 57.308 128 128 128h42.667zM341.333 746.667c-23.565 0-42.667-19.102-42.667-42.667v-554.667c0-23.565 19.102-42.667 42.667-42.667h341.333c23.565 0 42.667 19.102 42.667 42.667v554.667c0 23.565-19.102 42.667-42.667 42.667h-341.333z" />
<glyph unicode="&#xe90a;" glyph-name="element-chat" data-tags="element_chat" d="M151.763 35.979c-45.505-12.262-92.334 14.688-104.595 60.194-7.049 26.161-1.255 54.114 15.611 75.319 41.459 52.124 70.323 92.13 85.937 118.426-42.128 62.682-64.947 134.985-64.947 210.396 0 224.981 201.568 405.333 448 405.333s448-180.352 448-405.333c0-224.981-201.568-405.333-448-405.333-59.887 0-118.178 10.647-172.241 31.021-56.092-37.916-125.387-67.827-207.765-90.022zM370.965 213.444c49.527-21.681 104.19-33.131 160.804-33.131 201.289 0 362.667 144.393 362.667 320s-161.378 320-362.667 320c-201.289 0-362.667-144.393-362.667-320 0-65.269 22.192-127.629 63.245-180.503l15.285-19.686-9.641-22.982c-13.777-32.853-49.435-84.597-108.43-158.769 82.55 22.242 148.692 52.395 198.593 90.046l19.934 15.042 22.876-10.016zM393.956 500.314c0-35.346-28.654-64-64-64s-64 28.654-64 64c0 35.346 28.654 64 64 64s64-28.654 64-64zM577.626 500.314c0-35.346-28.654-64-64-64s-64 28.654-64 64c0 35.346 28.654 64 64 64s64-28.654 64-64zM773.333 500.314c0-35.346-28.654-64-64-64s-64 28.654-64 64c0 35.346 28.654 64 64 64s64-28.654 64-64z" />
<glyph unicode="&#xe90b;" glyph-name="element-document" data-tags="element_document" d="M298.667 874.667h316.339l238.327-238.327v-487.006c0-70.692-57.308-128-128-128h-426.667c-70.692 0-128 57.308-128 128v597.333c0 70.692 57.308 128 128 128zM597.333 771.66l-17.673 17.673h-280.994c-23.565 0-42.667-19.103-42.667-42.667v-597.333c0-23.565 19.102-42.667 42.667-42.667h426.667c23.565 0 42.667 19.102 42.667 42.667v451.661l-17.673 17.673h-110.327c-23.565 0-42.667 19.102-42.667 42.667v110.327z" />
<glyph unicode="&#xe90c;" glyph-name="element-loader" data-tags="element_loader" d="M554.667 832c0-23.565-19.103-42.667-42.667-42.667s-42.667 19.102-42.667 42.667c0 23.565 19.103 42.667 42.667 42.667s42.667-19.102 42.667-42.667zM210.302 689.359c16.661-16.663 43.676-16.663 60.339 0s16.663 43.678 0 60.339c-16.663 16.663-43.678 16.663-60.339 0-16.663-16.661-16.663-43.676 0-60.339zM813.698 689.359c-16.661-16.663-43.676-16.661-60.339 0-16.661 16.663-16.663 43.678 0 60.339 16.663 16.663 43.678 16.663 60.339 0 16.663-16.661 16.663-43.676 0-60.339zM128 405.333c23.565 0 42.667 19.102 42.667 42.667s-19.102 42.667-42.667 42.667c-23.565 0-42.667-19.102-42.667-42.667s19.102-42.667 42.667-42.667zM938.667 448c0-23.565-19.102-42.667-42.667-42.667s-42.667 19.102-42.667 42.667c0 23.565 19.102 42.667 42.667 42.667s42.667-19.102 42.667-42.667zM813.698 146.301c-16.661-16.663-43.676-16.663-60.339 0s-16.663 43.677 0 60.34c16.663 16.663 43.678 16.663 60.339 0 16.663-16.663 16.663-43.677 0-60.34zM270.641 146.301c-16.663-16.662-43.678-16.662-60.339 0-16.663 16.662-16.663 43.677 0 60.34 16.661 16.662 43.676 16.662 60.339 0 16.661-16.662 16.661-43.677 0-60.34zM554.667 64c0-23.564-19.103-42.667-42.667-42.667s-42.667 19.103-42.667 42.667c0 23.564 19.103 42.667 42.667 42.667s42.667-19.103 42.667-42.667z" />
<glyph unicode="&#xe90d;" glyph-name="element-mouse" data-tags="element_mouse" d="M512 960c164.949 0 298.667-133.718 298.667-298.667v-341.333c0-164.949-133.717-298.667-298.667-298.667s-298.667 133.717-298.667 298.667v341.333c0 164.949 133.717 298.667 298.667 298.667zM512 874.667c-117.82 0-213.333-95.514-213.333-213.333v-341.333c0-117.82 95.514-213.333 213.333-213.333s213.333 95.514 213.333 213.333v341.333c0 117.82-95.514 213.333-213.333 213.333zM512 832c23.564 0 42.667-19.103 42.667-42.667v-128c0-23.564-19.103-42.667-42.667-42.667s-42.667 19.103-42.667 42.667v128c0 23.564 19.103 42.667 42.667 42.667z" />
<glyph unicode="&#xe90e;" glyph-name="element-share" data-tags="element_share" d="M256 320c-70.692 0-128 57.308-128 128s57.308 128 128 128c70.692 0 128-57.308 128-128s-57.308-128-128-128zM256 405.333c23.564 0 42.667 19.103 42.667 42.667s-19.103 42.667-42.667 42.667c-23.564 0-42.667-19.103-42.667-42.667s19.103-42.667 42.667-42.667zM725.333 618.667c-70.692 0-128 57.308-128 128s57.308 128 128 128c70.692 0 128-57.308 128-128s-57.308-128-128-128zM725.333 704c23.564 0 42.667 19.103 42.667 42.667s-19.103 42.667-42.667 42.667c-23.564 0-42.667-19.103-42.667-42.667s19.103-42.667 42.667-42.667zM725.333 21.333c-70.692 0-128 57.308-128 128s57.308 128 128 128c70.692 0 128-57.308 128-128s-57.308-128-128-128zM725.333 106.667c23.564 0 42.667 19.103 42.667 42.667s-19.103 42.667-42.667 42.667c-23.564 0-42.667-19.103-42.667-42.667s19.103-42.667 42.667-42.667z" />
<glyph unicode="&#xe90f;" glyph-name="element-wifi" data-tags="element_wifi" d="M597.333 192c0-47.128-38.205-85.333-85.333-85.333s-85.333 38.205-85.333 85.333c0 47.128 38.205 85.333 85.333 85.333s85.333-38.205 85.333-85.333z" />
<glyph unicode="&#xe910;" glyph-name="navigation-arrow-down" data-tags="navigation_arrow_down" d="M512 509.222l266.989 266.989c17.495 17.495 45.86 17.495 63.356 0s17.495-45.86 0-63.356l-298.667-298.667c-8.747-8.749-20.211-13.122-31.678-13.122-11.465 0-22.929 4.373-31.678 13.122l-298.667 298.667c-17.495 17.495-17.495 45.86 0 63.356s45.86 17.495 63.356 0l266.989-266.989z" />
<glyph unicode="&#xe911;" glyph-name="navigation-arrow-left" data-tags="navigation_arrow_left" d="M573.222 448l266.989 266.989c17.495 17.495 17.495 45.861 0 63.356s-45.86 17.496-63.356 0l-298.667-298.667c-8.749-8.747-13.122-20.213-13.122-31.678s4.373-22.931 13.122-31.678l298.667-298.667c17.495-17.495 45.86-17.495 63.356 0s17.495 45.86 0 63.356l-266.989 266.989z" />
<glyph unicode="&#xe912;" glyph-name="navigation-arrow-right" data-tags="navigation_arrow_right" d="M450.778 448l-266.989 266.989c-17.495 17.495-17.495 45.861 0 63.356s45.86 17.496 63.356 0l298.667-298.667c8.749-8.747 13.122-20.213 13.122-31.678s-4.373-22.931-13.122-31.678l-298.667-298.667c-17.495-17.495-45.86-17.495-63.356 0s-17.495 45.86 0 63.356l266.989 266.989z" />
<glyph unicode="&#xe913;" glyph-name="navigation-arrow-up" data-tags="navigation_arrow_up" d="M512 386.778l266.989-266.989c17.495-17.495 45.86-17.495 63.356 0s17.495 45.86 0 63.356l-298.667 298.667c-8.747 8.749-20.211 13.122-31.678 13.122-11.465 0-22.929-4.373-31.678-13.122l-298.667-298.667c-17.495-17.495-17.495-45.86 0-63.356s45.86-17.495 63.356 0l266.989 266.989z" />
<glyph unicode="&#xe914;" glyph-name="navigation-cross" data-tags="navigation_cross" d="M843.869 779.869c17.495-17.495 17.495-45.861 0-63.357l-600.381-600.381c-17.495-17.495-45.861-17.495-63.357 0s-17.495 45.861 0 63.357l600.381 600.381c17.495 17.495 45.861 17.495 63.357 0zM180.131 779.869c17.495 17.495 45.861 17.495 63.357 0l600.381-600.381c17.495-17.495 17.495-45.861 0-63.357s-45.861-17.495-63.357 0l-600.381 600.381c-17.495 17.495-17.495 45.861 0 63.357z" />
<glyph unicode="&#xe915;" glyph-name="navigation-plus" data-tags="navigation_plus" d="M274.56 490.667h474.88c17.32 0 31.36-20.058 31.36-44.8v4.267c0-24.742-14.040-44.8-31.36-44.8h-474.88c-17.32 0-31.36 20.058-31.36 44.8v-4.267c0 24.742 14.040 44.8 31.36 44.8zM554.667 685.44v-474.88c0-17.32-20.058-31.36-44.8-31.36h4.267c-24.742 0-44.8 14.040-44.8 31.36v474.88c0 17.32 20.058 31.36 44.8 31.36h-4.267c24.742 0 44.8-14.040 44.8-31.36z" />
<glyph unicode="&#xe916;" glyph-name="navigation-refresh" data-tags="navigation_refresh" d="M292.74 315.185c44.924-73.779 126.114-123.046 218.81-123.046 69.254 0 134.031 27.571 181.822 75.787 16.589 16.736 43.603 16.855 60.339 0.267s16.855-43.603 0.267-60.339c-63.657-64.222-150.176-101.047-242.428-101.047-134.108 0-250.153 77.342-305.964 189.854l-50.576-10.75c-5.128-1.090-10.453-0.811-15.439 0.809-15.688 5.097-24.273 21.948-19.176 37.634l61.199 188.35c1.62 4.986 4.524 9.457 8.42 12.966 12.258 11.038 31.142 10.048 42.18-2.21l132.516-147.174c3.507-3.898 5.929-8.649 7.019-13.775 3.43-16.134-6.869-31.996-23.004-35.424l-55.985-11.9zM730.812 580.954c-44.926 73.779-126.116 123.046-218.812 123.046-69.254 0-134.029-27.571-181.822-75.787-16.589-16.736-43.603-16.855-60.339-0.267s-16.855 43.603-0.267 60.339c63.659 64.222 150.176 101.047 242.428 101.047 134.11 0 250.155-77.342 305.965-189.854l50.575 10.75c5.129 1.090 10.453 0.811 15.439-0.809 15.689-5.097 24.273-21.948 19.177-37.634l-61.199-188.35c-1.619-4.986-4.525-9.457-8.42-12.966-12.258-11.036-31.142-10.048-42.18 2.21l-132.516 147.174c-3.507 3.898-5.929 8.649-7.019 13.775-3.428 16.134 6.871 31.996 23.006 35.424v0l55.985 11.9z" />
<glyph unicode="&#xe917;" glyph-name="navigation-reload" data-tags="navigation_reload" d="M685.137 636.759l-50.453-27.040c-14.539-7.791-20.006-25.89-12.211-40.422 2.479-4.621 6.131-8.508 10.586-11.268l168.35-104.333c14.022-8.691 32.437-4.371 41.131 9.643 2.765 4.454 4.305 9.557 4.469 14.797l6.221 197.894c0.518 16.482-12.429 30.261-28.917 30.782-5.242 0.162-10.434-1.054-15.057-3.531l-45.577-24.427c-85.005 92.45-218.044 134.334-346.857 96.928-181.065-52.579-285.203-241.918-232.599-422.9 52.603-180.979 242.032-285.071 423.099-232.491 67.755 19.676 126.53 59.119 169.999 112.813 14.825 18.31 11.991 45.171-6.332 59.991-18.319 14.818-45.19 11.987-60.017-6.327-32.597-40.26-76.576-69.775-127.465-84.553-135.799-39.435-277.869 38.633-317.323 174.368s38.65 277.739 174.449 317.173c89.035 25.856 180.766 1.203 244.503-57.099z" />
<glyph unicode="&#xe918;" glyph-name="activity" data-tags="activity" d="M42.667 405.333h106.3c57.149 0 107.375 37.885 123.075 92.836l67.65 236.776c5.294 18.53 24.608 29.26 43.138 23.966 12.398-3.542 21.832-13.633 24.534-26.241l125.833-587.221c13.913-64.926 77.824-106.281 142.751-92.368 43.44 9.309 78.206 41.813 90.411 84.53l67.65 236.776c5.233 18.317 21.975 30.945 41.025 30.945h106.3c23.564 0 42.667 19.103 42.667 42.667s-19.103 42.667-42.667 42.667h-106.3c-57.149 0-107.375-37.885-123.075-92.836l-67.65-236.776c-3.542-12.398-13.633-21.832-26.241-24.534-18.844-4.038-37.394 7.965-41.432 26.809l-125.833 587.221c-9.309 43.44-41.813 78.206-84.53 90.411-63.845 18.242-130.39-18.728-148.631-82.573l-67.65-236.776c-5.233-18.317-21.975-30.945-41.025-30.945h-106.3c-23.564 0-42.667-19.103-42.667-42.667s19.103-42.667 42.667-42.667z" />
<glyph unicode="&#xe919;" glyph-name="add" data-tags="add" d="M469.333 490.667h-341.333c-23.564 0-42.667-19.103-42.667-42.667s19.103-42.667 42.667-42.667h341.333v-341.333c0-23.564 19.103-42.667 42.667-42.667s42.667 19.103 42.667 42.667v341.333h341.333c23.564 0 42.667 19.103 42.667 42.667s-19.103 42.667-42.667 42.667h-341.333v341.333c0 23.564-19.103 42.667-42.667 42.667s-42.667-19.103-42.667-42.667v-341.333z" />
<glyph unicode="&#xe91a;" glyph-name="add-circle" data-tags="add-circle" d="M512-21.333c-259.206 0-469.333 210.128-469.333 469.333s210.128 469.333 469.333 469.333c259.206 0 469.333-210.128 469.333-469.333s-210.128-469.333-469.333-469.333zM512 64c212.077 0 384 171.923 384 384s-171.923 384-384 384c-212.077 0-384-171.923-384-384s171.923-384 384-384zM469.333 490.667v128c0 23.564 19.103 42.667 42.667 42.667s42.667-19.103 42.667-42.667v-128h128c23.564 0 42.667-19.103 42.667-42.667s-19.103-42.667-42.667-42.667h-128v-128c0-23.564-19.103-42.667-42.667-42.667s-42.667 19.103-42.667 42.667v128h-128c-23.564 0-42.667 19.103-42.667 42.667s19.103 42.667 42.667 42.667h128z" />
<glyph unicode="&#xe91b;" glyph-name="add-squre" data-tags="add-squre" d="M554.667 490.667h128c23.564 0 42.667-19.103 42.667-42.667s-19.103-42.667-42.667-42.667h-128v-128c0-23.564-19.103-42.667-42.667-42.667s-42.667 19.103-42.667 42.667v128h-128c-23.564 0-42.667 19.103-42.667 42.667s19.103 42.667 42.667 42.667h128v128c0 23.564 19.103 42.667 42.667 42.667s42.667-19.103 42.667-42.667v-128zM256 874.667h512c94.257 0 170.667-76.41 170.667-170.667v-512c0-94.257-76.41-170.667-170.667-170.667h-512c-94.257 0-170.667 76.41-170.667 170.667v512c0 94.257 76.41 170.667 170.667 170.667zM256 789.333c-47.128 0-85.333-38.205-85.333-85.333v-512c0-47.128 38.205-85.333 85.333-85.333h512c47.128 0 85.333 38.205 85.333 85.333v512c0 47.128-38.205 85.333-85.333 85.333h-512z" />
<glyph unicode="&#xe91c;" glyph-name="airplane" data-tags="airplane" d="M430.933 98.133l217.6 290.133c8.058 10.744 20.704 17.067 34.133 17.067h213.333c23.564 0 42.667 19.103 42.667 42.667s-19.103 42.667-42.667 42.667h-682.667c-9.232 0-18.215 2.994-25.6 8.533l-102.4 76.8v-170.667h341.333c29.79 0 50.41-29.755 39.95-57.648l-106.382-283.685c29.291 0 54.583 12.646 70.699 34.133zM365.099 576l-106.382 283.685c-10.46 27.893 10.16 57.648 39.95 57.648h64c53.719 0 104.302-25.292 136.533-68.267l204.8-273.067h192c70.692 0 128-57.308 128-128s-57.308-128-128-128h-192l-204.8-273.067c-32.231-42.975-82.815-68.267-136.533-68.267h-64c-29.79 0-50.41 29.755-39.95 57.648l106.382 283.685h-279.765c-47.128 0-85.333 38.205-85.333 85.333v170.667c0 47.128 38.205 85.333 85.333 85.333 18.464 0 36.429-5.989 51.2-17.067l91.022-68.267h137.543zM456.235 576h141.099l-166.4 221.867c-16.116 21.487-41.407 34.133-68.267 34.133h-2.432l96-256z" />
<glyph unicode="&#xe91d;" glyph-name="airplane-landing" data-tags="airplane-landing" d="M477.301 531.695c4.368-30.318-23.686-55.225-53.274-47.297l-206.064 55.215c-10.93 2.929-20.25 10.080-25.907 19.88l-39.006 67.561-39.598-147.78 741.831-198.773c22.761-6.099 46.157 7.409 52.256 30.17s-7.409 46.157-30.17 52.256l-247.277 66.258c-13.31 3.566-24.078 13.341-28.912 26.244l-105.654 282.020c-9.364 24.996-29.862 44.121-55.329 51.779l37.104-257.532zM673.386 505.926l226.068-60.575c68.284-18.297 108.806-88.484 90.51-156.767s-88.484-108.806-156.767-90.51l-741.831 198.773c-45.522 12.198-72.537 58.989-60.34 104.512l39.598 147.78c12.198 45.522 58.989 72.537 104.512 60.34 21.861-5.858 40.499-20.159 51.815-39.759l30.17-52.256 126.492-33.894-37.111 257.574c-4.368 30.318 23.686 55.225 53.274 47.297l60.012-16.080c53.239-14.265 96.311-53.364 115.648-104.978l97.951-261.459zM128 21.333c-23.564 0-42.667 19.103-42.667 42.667s19.103 42.667 42.667 42.667h768c23.564 0 42.667-19.103 42.667-42.667s-19.103-42.667-42.667-42.667h-768z" />
<glyph unicode="&#xe91e;" glyph-name="airplane-takeoff" data-tags="airplane-takeoff" d="M437.73 496.78c18.942-24.072 7.1-59.67-22.488-67.597l-206.064-55.215c-10.93-2.929-22.576-1.396-32.376 4.262l-67.561 39.006 39.598-147.78 741.831 198.773c22.761 6.099 36.269 29.495 30.17 52.256s-29.495 36.269-52.256 30.17l-247.277-66.258c-13.31-3.566-27.522-0.485-38.161 8.272l-232.51 191.409c-20.608 16.965-47.922 23.279-73.806 17.178l160.899-204.477zM620.429 572.506l226.068 60.575c68.284 18.297 138.471-22.226 156.767-90.51s-22.226-138.471-90.51-156.767l-741.831-198.773c-45.522-12.198-92.314 14.817-104.512 60.34l-39.598 147.78c-12.198 45.522 14.817 92.314 60.34 104.512 21.861 5.858 45.153 2.791 64.753-8.525l52.256-30.17 126.492 33.894-160.926 204.511c-18.942 24.072-7.1 59.67 22.488 67.597l60.012 16.080c53.239 14.265 110.090 1.941 152.643-33.089l215.558-177.454zM128 21.333c-23.564 0-42.667 19.103-42.667 42.667s19.103 42.667 42.667 42.667h768c23.564 0 42.667-19.103 42.667-42.667s-19.103-42.667-42.667-42.667h-768z" />
<glyph unicode="&#xe91f;" glyph-name="airplay" data-tags="airplay" d="M234.667 234.667c23.564 0 42.667-19.103 42.667-42.667s-19.103-42.667-42.667-42.667h-21.333c-94.257 0-170.667 76.41-170.667 170.667v341.333c0 94.257 76.41 170.667 170.667 170.667h597.333c94.257 0 170.667-76.41 170.667-170.667v-341.333c0-94.257-76.41-170.667-170.667-170.667h-21.333c-23.564 0-42.667 19.103-42.667 42.667s19.103 42.667 42.667 42.667h21.333c47.128 0 85.333 38.205 85.333 85.333v341.333c0 47.128-38.205 85.333-85.333 85.333h-597.333c-47.128 0-85.333-38.205-85.333-85.333v-341.333c0-47.128 38.205-85.333 85.333-85.333h21.333zM349.944 153.841l90.499 136.415c26.054 39.272 79.010 49.988 118.282 23.934 9.388-6.228 17.45-14.254 23.721-23.614l91.387-136.415c26.23-39.154 15.753-92.159-23.401-118.389-14.051-9.413-30.582-14.438-47.494-14.438h-181.886c-47.128 0-85.333 38.205-85.333 85.333 0 16.781 4.948 33.19 14.225 47.174zM421.052 106.667h181.886l-91.387 136.415-90.499-136.415z" />
<glyph unicode="&#xe920;" glyph-name="album" data-tags="album" d="M384 440.717v135.283c0 70.692 57.308 128 128 128h149.333c70.692 0 128-57.308 128-128v-235.162c0-2.596-0.232-5.137-0.676-7.605 0.447-4.35 0.676-8.765 0.676-13.233 0-70.692-57.308-128-128-128s-128 57.308-128 128c0 70.692 57.308 128 128 128 14.96 0 29.321-2.567 42.667-7.283v135.283c0 23.564-19.103 42.667-42.667 42.667h-149.333c-23.564 0-42.667-19.103-42.667-42.667v-236.437c0-2.433-0.204-4.819-0.595-7.141 0.394-4.087 0.595-8.231 0.595-12.421 0-70.692-57.308-128-128-128s-128 57.308-128 128c0 70.692 57.308 128 128 128 14.96 0 29.321-2.567 42.667-7.283zM256 874.667h512c94.257 0 170.667-76.41 170.667-170.667v-512c0-94.257-76.41-170.667-170.667-170.667h-512c-94.257 0-170.667 76.41-170.667 170.667v512c0 94.257 76.41 170.667 170.667 170.667zM256 789.333c-47.128 0-85.333-38.205-85.333-85.333v-512c0-47.128 38.205-85.333 85.333-85.333h512c47.128 0 85.333 38.205 85.333 85.333v512c0 47.128-38.205 85.333-85.333 85.333h-512zM341.333 277.333c23.564 0 42.667 19.103 42.667 42.667s-19.103 42.667-42.667 42.667c-23.564 0-42.667-19.103-42.667-42.667s19.103-42.667 42.667-42.667zM661.333 277.333c23.564 0 42.667 19.103 42.667 42.667s-19.103 42.667-42.667 42.667c-23.564 0-42.667-19.103-42.667-42.667s19.103-42.667 42.667-42.667z" />
<glyph unicode="&#xe921;" glyph-name="alerm" data-tags="alerm" d="M904.897 571.978c21.742-51.197 33.77-107.516 33.77-166.644 0-113.326-44.182-216.332-116.26-292.734l61.096-61.096c16.662-16.662 16.662-43.677 0-60.34s-43.677-16.662-60.34 0l-65.371 65.371c-69.482-49.053-154.272-77.868-245.792-77.868s-176.31 28.815-245.792 77.868l-65.371-65.371c-16.662-16.662-43.677-16.662-60.34 0s-16.662 43.677 0 60.34l61.096 61.096c-72.078 76.402-116.26 179.408-116.26 292.734 0 59.128 12.028 115.448 33.77 166.644-47.266 35.631-76.436 91.878-76.436 153.356 0 106.039 85.961 192 192 192 71.412 0 135.171-39.33 168.249-99.405 34.82 9.181 71.381 14.072 109.085 14.072s74.265-4.891 109.085-14.072c33.078 60.075 96.836 99.405 168.249 99.405 106.039 0 192-85.961 192-192 0-61.478-29.171-117.725-76.436-153.356zM862.923 648.089c20.687 19.713 33.077 47.358 33.077 77.244 0 58.91-47.756 106.667-106.667 106.667-35.358 0-67.351-17.364-86.9-44.751 64.508-32.228 119.708-80.318 160.489-139.16zM161.077 648.089c40.781 58.842 95.982 106.932 160.489 139.16-19.548 27.387-51.542 44.751-86.9 44.751-58.91 0-106.667-47.756-106.667-106.667 0-29.886 12.39-57.531 33.077-77.244zM512 64c188.513 0 341.333 152.82 341.333 341.333s-152.82 341.333-341.333 341.333c-188.513 0-341.333-152.82-341.333-341.333s152.82-341.333 341.333-341.333zM554.667 618.667v-170.667h170.667c23.564 0 42.667-19.103 42.667-42.667s-19.103-42.667-42.667-42.667h-213.333c-23.564 0-42.667 19.103-42.667 42.667v213.333c0 23.564 19.103 42.667 42.667 42.667s42.667-19.103 42.667-42.667z" />
<glyph unicode="&#xe922;" glyph-name="alert" data-tags="alert" d="M624.156 801.949l325.012-590.93c34.068-61.942 11.472-139.773-50.47-173.841-18.899-10.394-40.117-15.844-61.686-15.844h-650.023c-70.692 0-128 57.308-128 128 0 21.568 5.45 42.787 15.844 61.686l325.012 590.93c34.068 61.942 111.899 84.538 173.841 50.47 21.268-11.698 38.772-29.202 50.47-50.47zM549.385 760.825c-3.899 7.089-9.734 12.924-16.823 16.823-20.647 11.356-46.591 3.824-57.947-16.823l-325.012-590.93c-3.465-6.3-5.281-13.372-5.281-20.562 0-23.564 19.103-42.667 42.667-42.667h650.023c7.189 0 14.262 1.817 20.562 5.281 20.647 11.356 28.179 37.3 16.823 57.947l-325.012 590.93zM469.333 565.333c0 23.564 19.103 42.667 42.667 42.667s42.667-19.103 42.667-42.667v-192c0-23.564-19.103-42.667-42.667-42.667s-42.667 19.103-42.667 42.667v192zM469.333 213.333c0 23.564 19.103 42.667 42.667 42.667s42.667-19.103 42.667-42.667c0-23.564-19.103-42.667-42.667-42.667s-42.667 19.103-42.667 42.667z" />
<glyph unicode="&#xe923;" glyph-name="alert-circle" data-tags="alert-circle" d="M512-21.333c-259.206 0-469.333 210.128-469.333 469.333s210.128 469.333 469.333 469.333c259.206 0 469.333-210.128 469.333-469.333s-210.128-469.333-469.333-469.333zM512 64c212.077 0 384 171.923 384 384s-171.923 384-384 384c-212.077 0-384-171.923-384-384s171.923-384 384-384zM469.333 213.333c0 23.564 19.103 42.667 42.667 42.667s42.667-19.103 42.667-42.667c0-23.564-19.103-42.667-42.667-42.667s-42.667 19.103-42.667 42.667zM469.333 672c0 23.564 19.103 42.667 42.667 42.667s42.667-19.103 42.667-42.667v-298.667c0-23.564-19.103-42.667-42.667-42.667s-42.667 19.103-42.667 42.667v298.667z" />
<glyph unicode="&#xe924;" glyph-name="align-bottom" data-tags="align-bottom" d="M85.333 21.333c-23.564 0-42.667 19.103-42.667 42.667s19.103 42.667 42.667 42.667h853.333c23.564 0 42.667-19.103 42.667-42.667s-19.103-42.667-42.667-42.667h-853.333zM256 874.667h128c47.128 0 85.333-38.205 85.333-85.333v-512c0-47.128-38.205-85.333-85.333-85.333h-128c-47.128 0-85.333 38.205-85.333 85.333v512c0 47.128 38.205 85.333 85.333 85.333zM640 661.333h128c47.128 0 85.333-38.205 85.333-85.333v-298.667c0-47.128-38.205-85.333-85.333-85.333h-128c-47.128 0-85.333 38.205-85.333 85.333v298.667c0 47.128 38.205 85.333 85.333 85.333zM256 789.333v-512h128v512h-128zM640 576v-298.667h128v298.667h-128z" />
<glyph unicode="&#xe925;" glyph-name="align-horizontally" data-tags="align-horizontally" d="M469.333 405.333v85.333h-213.333c-47.128 0-85.333 38.205-85.333 85.333v128c0 47.128 38.205 85.333 85.333 85.333h213.333v85.333c0 23.564 19.103 42.667 42.667 42.667s42.667-19.103 42.667-42.667v-85.333h213.333c47.128 0 85.333-38.205 85.333-85.333v-128c0-47.128-38.205-85.333-85.333-85.333h-213.333v-85.333h106.667c47.128 0 85.333-38.205 85.333-85.333v-128c0-47.128-38.205-85.333-85.333-85.333h-106.667v-85.333c0-23.564-19.103-42.667-42.667-42.667s-42.667 19.103-42.667 42.667v85.333h-106.667c-47.128 0-85.333 38.205-85.333 85.333v128c0 47.128 38.205 85.333 85.333 85.333h106.667zM256 704v-128h512v128h-512zM362.667 320v-128h298.667v128h-298.667z" />
<glyph unicode="&#xe926;" glyph-name="align-left" data-tags="align-left" d="M170.667 21.333c0-23.564-19.103-42.667-42.667-42.667s-42.667 19.103-42.667 42.667v853.333c0 23.564 19.103 42.667 42.667 42.667s42.667-19.103 42.667-42.667v-853.333zM341.333 789.333h512c47.128 0 85.333-38.205 85.333-85.333v-128c0-47.128-38.205-85.333-85.333-85.333h-512c-47.128 0-85.333 38.205-85.333 85.333v128c0 47.128 38.205 85.333 85.333 85.333zM341.333 405.333h298.667c47.128 0 85.333-38.205 85.333-85.333v-128c0-47.128-38.205-85.333-85.333-85.333h-298.667c-47.128 0-85.333 38.205-85.333 85.333v128c0 47.128 38.205 85.333 85.333 85.333zM341.333 704v-128h512v128h-512zM341.333 320v-128h298.667v128h-298.667z" />
<glyph unicode="&#xe927;" glyph-name="align-right" data-tags="align-right" d="M938.667 21.333c0-23.564-19.103-42.667-42.667-42.667s-42.667 19.103-42.667 42.667v853.333c0 23.564 19.103 42.667 42.667 42.667s42.667-19.103 42.667-42.667v-853.333zM170.667 789.333h512c47.128 0 85.333-38.205 85.333-85.333v-128c0-47.128-38.205-85.333-85.333-85.333h-512c-47.128 0-85.333 38.205-85.333 85.333v128c0 47.128 38.205 85.333 85.333 85.333zM384 405.333h298.667c47.128 0 85.333-38.205 85.333-85.333v-128c0-47.128-38.205-85.333-85.333-85.333h-298.667c-47.128 0-85.333 38.205-85.333 85.333v128c0 47.128 38.205 85.333 85.333 85.333zM170.667 704v-128h512v128h-512zM384 320v-128h298.667v128h-298.667z" />
<glyph unicode="&#xe928;" glyph-name="align-top" data-tags="align-top" d="M256 704h128c47.128 0 85.333-38.205 85.333-85.333v-512c0-47.128-38.205-85.333-85.333-85.333h-128c-47.128 0-85.333 38.205-85.333 85.333v512c0 47.128 38.205 85.333 85.333 85.333zM640 704h128c47.128 0 85.333-38.205 85.333-85.333v-298.667c0-47.128-38.205-85.333-85.333-85.333h-128c-47.128 0-85.333 38.205-85.333 85.333v298.667c0 47.128 38.205 85.333 85.333 85.333zM256 618.667v-512h128v512h-128zM640 618.667v-298.667h128v298.667h-128zM85.333 789.333c-23.564 0-42.667 19.103-42.667 42.667s19.103 42.667 42.667 42.667h853.333c23.564 0 42.667-19.103 42.667-42.667s-19.103-42.667-42.667-42.667h-853.333z" />
<glyph unicode="&#xe929;" glyph-name="align-vertically" data-tags="align-vertically" d="M554.667 426.667h-85.333v-234.667c0-47.128-38.205-85.333-85.333-85.333h-128c-47.128 0-85.333 38.205-85.333 85.333v234.667h-85.333c-23.564 0-42.667 19.103-42.667 42.667s19.103 42.667 42.667 42.667h85.333v192c0 47.128 38.205 85.333 85.333 85.333h128c47.128 0 85.333-38.205 85.333-85.333v-192h85.333v85.333c0 47.128 38.205 85.333 85.333 85.333h128c47.128 0 85.333-38.205 85.333-85.333v-85.333h85.333c23.564 0 42.667-19.103 42.667-42.667s-19.103-42.667-42.667-42.667h-85.333v-128c0-47.128-38.205-85.333-85.333-85.333h-128c-47.128 0-85.333 38.205-85.333 85.333v128zM384 704h-128v-512h128v512zM768 597.333h-128v-298.667h128v298.667z" />
<glyph unicode="&#xe92a;" glyph-name="angle" data-tags="angle" d="M815.351 556.564c-10.734 20.977-2.43 46.685 18.547 57.419s46.685 2.43 57.419-18.547c31.327-61.221 47.351-123.11 47.351-190.103 0-235.641-191.025-426.667-426.667-426.667s-426.667 191.025-426.667 426.667c0 68.349 15.632 129.075 47.474 190.343 10.867 20.909 36.626 29.050 57.535 18.183s29.050-36.626 18.183-57.535c-25.682-49.415-37.859-96.718-37.859-150.991 0-188.513 152.82-341.333 341.333-341.333s341.333 152.82 341.333 341.333c0 52.951-12.605 101.636-37.983 151.231zM256 405.333c0 23.564 19.103 42.667 42.667 42.667h426.667c23.564 0 42.667-19.103 42.667-42.667 0-141.385-114.615-256-256-256s-256 114.615-256 256zM512 234.667c79.524 0 146.344 54.39 165.29 128h-330.58c18.946-73.61 85.766-128 165.29-128zM341.333 490.667c-23.564 0-42.667 19.103-42.667 42.667s19.103 42.667 42.667 42.667c23.564 0 42.667-19.103 42.667-42.667s-19.103-42.667-42.667-42.667zM682.667 490.667c-23.564 0-42.667 19.103-42.667 42.667s19.103 42.667 42.667 42.667c23.564 0 42.667-19.103 42.667-42.667s-19.103-42.667-42.667-42.667zM512 618.667c-187.603 0-341.333 54.904-341.333 149.333s153.73 149.333 341.333 149.333c187.603 0 341.333-54.904 341.333-149.333s-153.73-149.333-341.333-149.333zM512 704c142.295 0 256 40.609 256 64s-113.705 64-256 64c-142.295 0-256-40.609-256-64s113.705-64 256-64z" />
<glyph unicode="&#xe92b;" glyph-name="app" data-tags="app" d="M810.667 448c0 23.564 19.103 42.667 42.667 42.667s42.667-19.103 42.667-42.667v-256c0-94.257-76.41-170.667-170.667-170.667h-469.333c-94.257 0-170.667 76.41-170.667 170.667v469.333c0 94.257 76.41 170.667 170.667 170.667h256c23.564 0 42.667-19.103 42.667-42.667s-19.103-42.667-42.667-42.667h-256c-47.128 0-85.333-38.205-85.333-85.333v-469.333c0-47.128 38.205-85.333 85.333-85.333h469.333c47.128 0 85.333 38.205 85.333 85.333v256zM810.667 576c-94.257 0-170.667 76.41-170.667 170.667s76.41 170.667 170.667 170.667c94.257 0 170.667-76.41 170.667-170.667s-76.41-170.667-170.667-170.667zM810.667 661.333c47.128 0 85.333 38.205 85.333 85.333s-38.205 85.333-85.333 85.333c-47.128 0-85.333-38.205-85.333-85.333s38.205-85.333 85.333-85.333z" />
<glyph unicode="&#xe92c;" glyph-name="arrow-down" data-tags="arrow-down" d="M469.333 211.817v577.516c0 23.564 19.103 42.667 42.667 42.667s42.667-19.103 42.667-42.667v-573.228l136.209 136.209c16.662 16.662 43.677 16.662 60.34 0s16.662-43.677 0-60.34l-181.019-181.019c-33.325-33.325-87.355-33.325-120.68 0l-181.019 181.019c-16.662 16.662-16.662 43.677 0 60.34s43.677 16.662 60.34 0l140.497-140.497z" />
<glyph unicode="&#xe92d;" glyph-name="arrow-left" data-tags="arrow-left" d="M273.673 490.667h579.66c23.564 0 42.667-19.103 42.667-42.667s-19.103-42.667-42.667-42.667h-579.66l138.353-138.353c16.662-16.662 16.662-43.677 0-60.34s-43.677-16.662-60.34 0l-181.019 181.019c-33.325 33.325-33.325 87.355 0 120.68l181.019 181.019c16.662 16.662 43.677 16.662 60.34 0s16.662-43.677 0-60.34l-138.353-138.353z" />
<glyph unicode="&#xe92e;" glyph-name="arrow-left-down" data-tags="arrow-left-down" d="M298.667 295.141l424.523 424.523c16.662 16.662 43.677 16.662 60.34 0s16.662-43.677 0-60.34l-424.523-424.523h238.327c23.564 0 42.667-19.103 42.667-42.667s-19.103-42.667-42.667-42.667h-298.667c-47.128 0-85.333 38.205-85.333 85.333v298.667c0 23.564 19.103 42.667 42.667 42.667s42.667-19.103 42.667-42.667v-238.327z" />
<glyph unicode="&#xe92f;" glyph-name="arrow-left-up" data-tags="arrow-left-up" d="M359.006 661.333l424.523-424.523c16.662-16.662 16.662-43.677 0-60.34s-43.677-16.662-60.34 0l-424.523 424.523v-238.327c0-23.564-19.103-42.667-42.667-42.667s-42.667 19.103-42.667 42.667v298.667c0 47.128 38.205 85.333 85.333 85.333h298.667c23.564 0 42.667-19.103 42.667-42.667s-19.103-42.667-42.667-42.667h-238.327z" />
<glyph unicode="&#xe930;" glyph-name="arrow-outline-down" data-tags="arrow-outline-down" d="M259.442 405.333l252.56-315.7 252.56 315.7h-145.893c-23.564 0-42.667 19.103-42.667 42.667v320c0 35.346-28.654 64-64 64s-64-28.654-64-64v-320c0-23.564-19.103-42.667-42.667-42.667h-145.893zM764.562 490.667c47.128 0 85.333-38.205 85.333-85.333 0-19.377-6.595-38.177-18.699-53.307l-252.56-315.7c-29.441-36.801-83.14-42.768-119.941-13.327-4.921 3.937-9.39 8.406-13.327 13.327l-252.56 315.7c-29.441 36.801-23.474 90.501 13.327 119.941 15.131 12.105 33.931 18.699 53.307 18.699h103.227v277.333c0 82.475 66.859 149.333 149.333 149.333s149.333-66.859 149.333-149.333v-277.333h103.227z" />
<glyph unicode="&#xe931;" glyph-name="arrow-outline-left" data-tags="arrow-outline-left" d="M554.667 195.438c0-47.128-38.205-85.333-85.333-85.333-19.377 0-38.177 6.595-53.307 18.699l-315.7 252.56c-36.801 29.441-42.768 83.14-13.327 119.941 3.937 4.921 8.406 9.39 13.327 13.327l315.7 252.56c36.801 29.441 90.501 23.474 119.941-13.327 12.105-15.131 18.699-33.931 18.699-53.307v-103.227h277.333c82.475 0 149.333-66.859 149.333-149.333s-66.859-149.333-149.333-149.333h-277.333v-103.227zM469.333 700.558l-315.7-252.56 315.7-252.56v145.893c0 23.564 19.103 42.667 42.667 42.667h320c35.346 0 64 28.654 64 64s-28.654 64-64 64h-320c-23.564 0-42.667 19.103-42.667 42.667v145.893z" />
<glyph unicode="&#xe932;" glyph-name="arrow-outline-right" data-tags="arrow-outline-right" d="M469.333 700.562c0 47.128 38.205 85.333 85.333 85.333 19.377 0 38.177-6.595 53.307-18.699l315.7-252.56c36.801-29.441 42.768-83.14 13.327-119.941-3.937-4.921-8.406-9.39-13.327-13.327l-315.7-252.56c-36.801-29.441-90.501-23.474-119.941 13.327-12.105 15.131-18.699 33.931-18.699 53.307v103.227h-277.333c-82.475 0-149.333 66.859-149.333 149.333s66.859 149.333 149.333 149.333h277.333v103.227zM554.667 195.442l315.7 252.56-315.7 252.56v-145.893c0-23.564-19.103-42.667-42.667-42.667h-320c-35.346 0-64-28.654-64-64s28.654-64 64-64h320c23.564 0 42.667-19.103 42.667-42.667v-145.893z" />
<glyph unicode="&#xe933;" glyph-name="arrow-outline-up" data-tags="arrow-outline-up" d="M764.558 490.667l-252.56 315.7-252.56-315.7h145.893c23.564 0 42.667-19.103 42.667-42.667v-320c0-35.346 28.654-64 64-64s64 28.654 64 64v320c0 23.564 19.103 42.667 42.667 42.667h145.893zM259.438 405.333c-47.128 0-85.333 38.205-85.333 85.333 0 19.377 6.595 38.177 18.699 53.307l252.56 315.7c29.441 36.801 83.14 42.768 119.941 13.327 4.921-3.937 9.39-8.406 13.327-13.327l252.56-315.7c29.441-36.801 23.474-90.501-13.327-119.941-15.131-12.105-33.931-18.699-53.307-18.699h-103.227v-277.333c0-82.475-66.859-149.333-149.333-149.333s-149.333 66.859-149.333 149.333v277.333h-103.227z" />
<glyph unicode="&#xe934;" glyph-name="arrow-right" data-tags="arrow-right" d="M752.471 488.523h-581.804c-23.564 0-42.667-19.103-42.667-42.667s19.103-42.667 42.667-42.667h577.516l-136.209-136.209c-16.662-16.662-16.662-43.677 0-60.34s43.677-16.662 60.34 0l181.019 181.019c33.325 33.325 33.325 87.355 0 120.68l-181.019 181.019c-16.662 16.662-43.677 16.662-60.34 0s-16.662-43.677 0-60.34l140.497-140.497z" />
<glyph unicode="&#xe935;" glyph-name="arrow-right-down" data-tags="arrow-right-down" d="M725.333 295.006l-424.523 424.523c-16.662 16.662-43.677 16.662-60.34 0s-16.662-43.677 0-60.34l424.523-424.523h-238.327c-23.564 0-42.667-19.103-42.667-42.667s19.103-42.667 42.667-42.667h298.667c47.128 0 85.333 38.205 85.333 85.333v298.667c0 23.564-19.103 42.667-42.667 42.667s-42.667-19.103-42.667-42.667v-238.327z" />
<glyph unicode="&#xe936;" glyph-name="arrow-right-up" data-tags="arrow-right-up" d="M664.994 661.333l-424.523-424.523c-16.662-16.662-16.662-43.677 0-60.34s43.677-16.662 60.34 0l424.523 424.523v-238.327c0-23.564 19.103-42.667 42.667-42.667s42.667 19.103 42.667 42.667v298.667c0 47.128-38.205 85.333-85.333 85.333h-298.667c-23.564 0-42.667-19.103-42.667-42.667s19.103-42.667 42.667-42.667h238.327z" />
<glyph unicode="&#xe937;" glyph-name="arrow-up" data-tags="arrow-up" d="M552.523 688.471v-581.804c0-23.564-19.103-42.667-42.667-42.667s-42.667 19.103-42.667 42.667v577.516l-136.209-136.209c-16.662-16.662-43.677-16.662-60.34 0s-16.662 43.677 0 60.34l181.019 181.019c33.325 33.325 87.355 33.325 120.68 0l181.019-181.019c16.662-16.662 16.662-43.677 0-60.34s-43.677-16.662-60.34 0l-140.497 140.497z" />
<glyph unicode="&#xe938;" glyph-name="artboard" data-tags="artboard" d="M511.66 234.667c0.245 0.002 0.489 0.002 0.734 0h340.939v426.667c0 47.128-38.205 85.333-85.333 85.333h-512c-47.128 0-85.333-38.205-85.333-85.333v-426.667h340.993zM633.633 149.333l118.354-94.683c18.401-14.72 21.384-41.57 6.663-59.971s-41.57-21.384-59.971-6.663l-186.68 149.344-186.68-149.344c-18.401-14.72-45.25-11.737-59.971 6.663s-11.737 45.25 6.663 59.971l118.354 94.683h-305.033c-23.564 0-42.667 19.103-42.667 42.667s19.103 42.667 42.667 42.667v426.667c0 94.257 76.41 170.667 170.667 170.667h213.333v42.667c0 23.564 19.103 42.667 42.667 42.667s42.667-19.103 42.667-42.667v-42.667h213.333c94.257 0 170.667-76.41 170.667-170.667v-426.667c23.564 0 42.667-19.103 42.667-42.667s-19.103-42.667-42.667-42.667h-305.033z" />
<glyph unicode="&#xe939;" glyph-name="attachment" data-tags="attachment" d="M789.777 432.915l-271.529-271.529c-74.981-74.981-196.548-74.981-271.529 0s-74.981 196.548 0 271.529l354.496 354.496c45.822 45.822 120.113 45.822 165.934 0s45.822-120.113 0-165.934l-354.496-354.496c-16.662-16.662-43.677-16.662-60.34 0s-16.662 43.677 0 60.34l271.087 271.087c16.662 16.662 16.662 43.677 0 60.34s-43.677 16.662-60.34 0l-271.087-271.087c-49.987-49.987-49.987-131.032 0-181.019s131.032-49.987 181.019 0l354.496 354.496c79.146 79.146 79.146 207.468 0 286.614s-207.468 79.146-286.614 0l-354.496-354.496c-108.305-108.305-108.305-283.903 0-392.209s283.903-108.305 392.209 0l271.529 271.529c16.662 16.662 16.662 43.677 0 60.34s-43.677 16.662-60.34 0z" />
<glyph unicode="&#xe93a;" glyph-name="attachment-s" data-tags="attachment-s" d="M682.667 256h-384c-106.039 0-192 85.961-192 192s85.961 192 192 192h501.333c64.801 0 117.333-52.532 117.333-117.333s-52.532-117.333-117.333-117.333h-501.333c-23.564 0-42.667 19.103-42.667 42.667s19.103 42.667 42.667 42.667h383.375c23.564 0 42.667 19.103 42.667 42.667s-19.103 42.667-42.667 42.667h-383.375c-70.692 0-128-57.308-128-128s57.308-128 128-128h501.333c111.93 0 202.667 90.737 202.667 202.667s-90.737 202.667-202.667 202.667h-501.333c-153.167 0-277.333-124.166-277.333-277.333s124.166-277.333 277.333-277.333h384c23.564 0 42.667 19.103 42.667 42.667s-19.103 42.667-42.667 42.667z" />
<glyph unicode="&#xe93b;" glyph-name="award" data-tags="award" d="M726.986 411.343l32.813-344.539c4.468-46.916-29.943-88.571-76.859-93.039-18.144-1.728-36.365 2.399-51.994 11.776l-118.946 71.368-118.946-71.368c-40.412-24.247-92.829-11.143-117.076 29.269-9.377 15.629-13.504 33.85-11.776 51.994l32.813 344.539c-51.813 53.715-83.681 126.798-83.681 207.324 0 164.949 133.718 298.667 298.667 298.667s298.667-133.718 298.667-298.667c0-80.526-31.868-153.608-83.681-207.324zM377.095 352.132l-27.945-293.418 118.946 71.368c27.024 16.214 60.784 16.214 87.807 0l118.946-71.368-27.945 293.418c-40.522-20.551-86.361-32.132-134.905-32.132s-94.384 11.582-134.905 32.132zM512 405.333c117.821 0 213.333 95.513 213.333 213.333s-95.513 213.333-213.333 213.333c-117.821 0-213.333-95.513-213.333-213.333s95.513-213.333 213.333-213.333z" />
<glyph unicode="&#xe93c;" glyph-name="badminton" data-tags="badminton" d="M309.831 589.829l60.34-60.34 60.34 60.34-60.34 60.34-60.34-60.34zM249.491 650.169l60.34 60.34-102.874 102.874c-11.608-8.029-22.619-17.178-32.89-27.449s-19.42-21.282-27.449-32.89l102.874-102.874zM518.895 798.892l-88.384-88.384 60.34-60.34 88.384 88.384c-8.429 11.228-17.778 22.030-28.044 32.296s-21.067 19.614-32.296 28.044zM440.292 840.97c-49.099 17.189-101.076 20.296-149.444 9.201l79.323-79.323 70.121 70.121zM161.108 441.105c8.429-11.228 17.778-22.030 28.044-32.296s21.067-19.614 32.296-28.044l88.384 88.384-60.34 60.34-88.384-88.384zM119.030 519.708l70.121 70.121-79.323 79.323c-11.095-48.368-7.988-100.345 9.201-149.444zM430.511 469.149l102.874-102.874c11.608 8.029 22.619 17.178 32.89 27.449s19.42 21.282 27.449 32.89l-102.874 102.874-60.34-60.34zM621.312 659.95l-70.121-70.121 79.323-79.323c11.095 48.368 7.988 100.345-9.201 149.444zM300.050 338.688c49.099-17.189 101.076-20.296 149.444-9.201l-79.323 79.323-70.121-70.121zM594.466 305.194c-135.209-103.637-335.259-87.12-465.655 43.276-141.183 141.183-148.867 364.021-15.085 497.803s356.62 126.098 497.803-15.085c130.396-130.396 146.913-330.446 43.276-465.655l92.488-92.488 15.085 15.085c16.662 16.662 43.677 16.662 60.34 0l150.849-150.849c16.662-16.662 16.662-43.677 0-60.34l-90.51-90.51c-16.662-16.662-43.677-16.662-60.34 0l-150.849 150.849c-16.662 16.662-16.662 43.677 0 60.34l15.085 15.085-92.488 92.488zM852.889 76.941l30.17 30.17-90.51 90.51-30.17-30.17 90.51-90.51z" />
<glyph unicode="&#xe93d;" glyph-name="bag" data-tags="bag" d="M604.36 778.729c-18.452 31.848-52.904 53.271-92.36 53.271s-73.908-21.423-92.36-53.271c29.696 6.939 60.621 10.604 92.36 10.604s62.665-3.665 92.36-10.604zM703.345 741.301c120.006-64.504 204.098-187.924 212.625-332.874l14.651-249.073c5.535-94.094-66.256-174.859-160.35-180.394-3.337-0.196-6.679-0.295-10.022-0.295h-496.499c-94.257 0-170.667 76.41-170.667 170.667 0 3.343 0.098 6.685 0.295 10.022l14.651 249.073c8.526 144.95 92.618 268.37 212.625 332.874 8.115 98.568 90.684 176.032 191.345 176.032s183.23-77.464 191.345-176.032zM618.667 685.732c-33.403 11.838-69.32 18.268-106.667 18.268s-73.263-6.43-106.667-18.268v-67.065c0-23.564-19.103-42.667-42.667-42.667s-42.667 19.103-42.667 42.667v21.179c-72.445-54.569-121.076-139.385-126.784-236.429l-14.651-249.073c-0.098-1.669-0.147-3.34-0.147-5.011 0-47.128 38.205-85.333 85.333-85.333h496.499c1.671 0 3.342 0.049 5.011 0.147 47.047 2.767 82.943 43.15 80.175 90.197l-14.651 249.073c-5.708 97.044-54.339 181.86-126.784 236.429v-21.179c0-23.564-19.103-42.667-42.667-42.667s-42.667 19.103-42.667 42.667v67.065zM384.002 448h256c70.692 0 128-57.308 128-128v-85.333c0-70.692-57.308-128-128-128h-256c-70.692 0-128 57.308-128 128v85.333c0 70.692 57.308 128 128 128zM341.335 320v-85.333c0-23.564 19.103-42.667 42.667-42.667h256c23.564 0 42.667 19.103 42.667 42.667v85.333c0 23.564-19.103 42.667-42.667 42.667h-256c-23.564 0-42.667-19.103-42.667-42.667z" />
<glyph unicode="&#xe93e;" glyph-name="bar-chart" data-tags="bar-chart" d="M768 682.667c0 23.564 19.103 42.667 42.667 42.667s42.667-19.103 42.667-42.667v-426.667c0-23.564-19.103-42.667-42.667-42.667s-42.667 19.103-42.667 42.667v426.667zM597.333 426.667c0 23.564 19.103 42.667 42.667 42.667s42.667-19.103 42.667-42.667v-170.667c0-23.564-19.103-42.667-42.667-42.667s-42.667 19.103-42.667 42.667v170.667zM256 554.667c0 23.564 19.103 42.667 42.667 42.667s42.667-19.103 42.667-42.667v-298.667c0-23.564-19.103-42.667-42.667-42.667s-42.667 19.103-42.667 42.667v298.667zM426.667 768c0 23.564 19.103 42.667 42.667 42.667s42.667-19.103 42.667-42.667v-512c0-23.564-19.103-42.667-42.667-42.667s-42.667 19.103-42.667 42.667v512zM170.667 810.667v-682.667h746.667c23.564 0 42.667-19.103 42.667-42.667s-19.103-42.667-42.667-42.667h-789.333c-23.564 0-42.667 19.103-42.667 42.667v725.333c0 23.564 19.103 42.667 42.667 42.667s42.667-19.103 42.667-42.667z" />
<glyph unicode="&#xe93f;" glyph-name="baseball" data-tags="baseball" d="M165.053 794.963c-4.144-4.144-7.989-8.577-11.505-13.266-41.042-54.722-29.951-132.354 24.771-173.396l527.828-395.871c34.714-26.036 60.664-62.039 74.386-103.205l13.311-39.933c0.8-2.4 2.148-4.581 3.937-6.37 6.364-6.364 16.683-6.364 23.048 0l76.265 76.265c1.789 1.789 3.137 3.97 3.937 6.37 2.846 8.539-1.768 17.768-10.307 20.615l-39.933 13.311c-41.166 13.722-77.169 39.671-103.205 74.386l-395.871 527.828c-3.516 4.689-7.361 9.122-11.505 13.266-48.368 48.368-126.788 48.368-175.156 0zM104.713 855.303c81.693 81.693 214.143 81.693 295.836 0 6.999-6.999 13.493-14.487 19.432-22.405l395.871-527.828c15.621-20.829 37.223-36.398 61.923-44.631l39.933-13.311c53.249-17.75 82.026-75.305 64.277-128.554-4.989-14.968-13.395-28.569-24.552-39.725l-76.265-76.265c-39.689-39.689-104.038-39.689-143.727 0-11.156 11.156-19.562 24.757-24.552 39.725l-13.311 39.933c-8.233 24.7-23.803 46.301-44.631 61.923l-527.828 395.871c-92.425 69.319-111.156 200.438-41.837 292.862 5.939 7.919 12.433 15.406 19.432 22.405z" />
<glyph unicode="&#xe940;" glyph-name="basketball" data-tags="basketball" d="M461.124 336.785c27.441-20.579 56.987-38.448 88.23-53.228 77.982 115.693 203.848 191.603 344.531 204.988-7.859 74.892-37.245 143.373-81.857 199.143l-350.903-350.903zM397.231 393.571l354.457 354.457c-55.771 44.613-124.252 73.999-199.144 81.857-13.962-146.699-95.91-277.018-219.287-353.811 18.528-29.701 39.994-57.333 63.974-82.503zM211.972 208.312l124.904 124.904c-30.34 31.628-57.264 66.623-80.147 104.408-40.373-15.846-82.903-26.037-126.613-30.179 7.861-74.888 37.246-143.365 81.856-199.133zM272.312 147.972c55.768-44.611 124.246-73.996 199.134-81.856 4.694 49.532 17.152 97.519 36.765 142.528-38.423 18.586-74.593 41.184-107.951 67.276l-127.948-127.948zM981.333 448c0-99.469-31.064-194.376-87.881-273.493-87.601-121.985-228.377-195.841-381.452-195.841-259.206 0-469.333 210.128-469.333 469.333 0 127.789 51.373 247.523 140.834 335.204 87.13 85.397 204.024 134.129 328.5 134.129 259.206 0 469.333-210.128 469.333-469.333zM256.145 734.355c1.493-63.304 14.487-124.745 38.012-182.028 95.223 61.735 159.042 162.909 172.516 277.023-78.778-9.268-151.888-42.537-210.527-94.995zM632.244 252.846c43.786-12.008 89.326-18.18 135.756-18.18 22.264 0 44.338 1.419 66.134 4.227 31.995 49.163 52.308 104.947 59.221 163.781-104.615-12.345-198.509-67.001-261.11-149.828zM130.649 493.309c29.908 3.511 59.061 10.492 87.010 20.752-17.229 40.71-29.877 83.265-37.684 127.027-26.199-44.954-43.13-95.093-49.326-147.779zM587.552 177.084c-15.512-34.906-25.734-72.036-30.243-110.429 72.826 8.581 140.606 37.666 196.337 82.848-56.961 1.345-112.743 10.692-166.095 27.581z" />
<glyph unicode="&#xe941;" glyph-name="battery" data-tags="battery" d="M554.667 704h-170.667v-512h170.667v512zM640 704v-512h85.333c47.128 0 85.333 38.205 85.333 85.333v341.333c0 47.128-38.205 85.333-85.333 85.333h-85.333zM298.667 704h-85.333c-47.128 0-85.333-38.205-85.333-85.333v-341.333c0-47.128 38.205-85.333 85.333-85.333h85.333v512zM938.667 533.333c0 23.564 19.103 42.667 42.667 42.667s42.667-19.103 42.667-42.667v-170.667c0-23.564-19.103-42.667-42.667-42.667s-42.667 19.103-42.667 42.667v170.667zM213.333 789.333h512c94.257 0 170.667-76.41 170.667-170.667v-341.333c0-94.257-76.41-170.667-170.667-170.667h-512c-94.257 0-170.667 76.41-170.667 170.667v341.333c0 94.257 76.41 170.667 170.667 170.667z" />
<glyph unicode="&#xe942;" glyph-name="battery-charging" data-tags="battery-charging" d="M618.667 704h106.667c47.128 0 85.333-38.205 85.333-85.333v-341.333c0-47.128-38.205-85.333-85.333-85.333h-64c-23.564 0-42.667-19.103-42.667-42.667s19.103-42.667 42.667-42.667h64c94.257 0 170.667 76.41 170.667 170.667v341.333c0 94.257-76.41 170.667-170.667 170.667h-106.667c-23.564 0-42.667-19.103-42.667-42.667s19.103-42.667 42.667-42.667zM277.333 192c23.564 0 42.667-19.103 42.667-42.667s-19.103-42.667-42.667-42.667h-64c-94.257 0-170.667 76.41-170.667 170.667v341.333c0 90.237 70.221 164.947 159.832 170.583 2.673 0.168 7.011 0.181 17.563 0.147 3.376-0.012 3.376-0.012 6.539-0.026 5.758-0.028 5.758-0.028 8.066-0.037 23.564 0 42.667-19.103 42.667-42.667s-19.103-42.667-42.667-42.667c-2.8 0.010-2.8 0.010-8.462 0.038-3.118 0.014-3.118 0.014-6.415 0.026-6.094 0.019-12.241 0.001-11.936 0.020-44.668-2.809-79.854-40.245-79.854-85.417v-341.333c0-47.128 38.205-85.333 85.333-85.333h64zM405.333 320h-170.667c-31.718 0-52.347 33.379-38.162 61.748l213.333 426.667c18.48 36.959 73.455 28.693 80.248-12.067l36.725-220.348h177.189c33.165 0 53.649-36.18 36.586-64.618l-256-426.667c-22.264-37.107-79.253-21.322-79.253 21.952v213.333zM303.703 405.333h144.297c23.564 0 42.667-19.103 42.667-42.667v-101.96l137.976 229.96h-137.976c-20.857 0-38.657 15.079-42.086 35.652l-21.096 126.577-123.782-247.563zM938.667 533.333c0 23.564 19.103 42.667 42.667 42.667s42.667-19.103 42.667-42.667v-170.667c0-23.564-19.103-42.667-42.667-42.667s-42.667 19.103-42.667 42.667v170.667z" />
<glyph unicode="&#xe943;" glyph-name="battery-low" data-tags="battery-low" d="M938.667 533.333v-170.667c0-23.564 19.103-42.667 42.667-42.667s42.667 19.103 42.667 42.667v170.667c0 23.564-19.103 42.667-42.667 42.667s-42.667-19.103-42.667-42.667zM213.333 704c-47.128 0-85.333-38.205-85.333-85.333v-341.333c0-47.128 38.205-85.333 85.333-85.333h512c47.128 0 85.333 38.205 85.333 85.333v341.333c0 47.128-38.205 85.333-85.333 85.333h-512zM213.333 789.333h512c94.257 0 170.667-76.41 170.667-170.667v-341.333c0-94.257-76.41-170.667-170.667-170.667h-512c-94.257 0-170.667 76.41-170.667 170.667v341.333c0 94.257 76.41 170.667 170.667 170.667zM298.667 746.667v-597.333c0-23.564 19.103-42.667 42.667-42.667s42.667 19.103 42.667 42.667v597.333c0 23.564-19.103 42.667-42.667 42.667s-42.667-19.103-42.667-42.667z" />
<glyph unicode="&#xe944;" glyph-name="battery-off" data-tags="battery-off" d="M576 789.333h-362.667c-94.257 0-170.667-76.41-170.667-170.667v-362.667c0-23.564 19.103-42.667 42.667-42.667s42.667 19.103 42.667 42.667v362.667c0 47.128 38.205 85.333 85.333 85.333h362.667c23.564 0 42.667 19.103 42.667 42.667s-19.103 42.667-42.667 42.667zM316.34 192h408.994c47.128 0 85.333 38.205 85.333 85.333v341.333c0 18.766-6.091 36.461-16.794 50.866l-477.533-477.533zM761.182 757.522c0.422 0.441 0.852 0.871 1.29 1.29l111.566 111.566c16.662 16.662 43.677 16.662 60.34 0s16.662-43.677 0-60.34l-79.842-79.842c26.241-30.383 41.464-69.656 41.464-111.53v-341.333c0-94.257-76.41-170.667-170.667-170.667h-494.327l-81.045-81.045c-16.662-16.662-43.677-16.662-60.34 0s-16.662 43.677 0 60.34l671.561 671.561zM938.667 533.333c0 23.564 19.103 42.667 42.667 42.667s42.667-19.103 42.667-42.667v-170.667c0-23.564-19.103-42.667-42.667-42.667s-42.667 19.103-42.667 42.667v170.667z" />
<glyph unicode="&#xe945;" glyph-name="bear" data-tags="bear" d="M407.471 447.983c-27.649-27.103-44.804-64.873-44.804-106.649 0-82.475 66.859-149.333 149.333-149.333s149.333 66.859 149.333 149.333c0 41.776-17.155 79.546-44.804 106.649-9.89-48.679-52.931-85.316-104.529-85.316s-94.64 36.637-104.529 85.316zM900.087 629.296c38.105-65.886 59.913-142.378 59.913-223.963 0-247.424-200.576-448-448-448s-448 200.576-448 448c0 81.558 21.793 158.025 59.875 223.897-47.070 30.85-74.303 86.979-66.044 145.747 11.478 81.672 86.991 138.575 168.663 127.097 50.781-7.137 92.576-39.286 113.69-82.87 52.911 21.991 110.946 34.13 171.816 34.13 60.825 0 118.819-12.122 171.698-34.081 22.321 46.051 67.627 78.996 121.439 83.704 82.161 7.188 154.592-53.589 161.78-135.75 4.929-56.333-22.199-108.587-66.83-137.909zM850.429 698.89c20.782 12.148 33.694 35.562 31.479 60.878-3.081 35.212-34.123 61.259-69.334 58.178-24.223-2.119-44.443-17.614-53.43-38.893 33.957-22.501 64.669-49.506 91.285-80.164zM173.525 698.838c26.598 30.646 57.288 57.644 91.221 80.144-8.513 20.208-27.189 35.364-50.129 38.588-35.002 4.919-67.365-19.468-72.284-54.47-3.706-26.369 9.283-51.52 31.192-64.262zM512 42.667c200.295 0 362.667 162.371 362.667 362.667s-162.371 362.667-362.667 362.667c-200.295 0-362.667-162.371-362.667-362.667s162.371-362.667 362.667-362.667zM512 106.667c-129.603 0-234.667 105.064-234.667 234.667s105.064 234.667 234.667 234.667c129.603 0 234.667-105.064 234.667-234.667s-105.064-234.667-234.667-234.667zM512 448c11.782 0 21.333 9.551 21.333 21.333s-9.551 21.333-21.333 21.333c-11.782 0-21.333-9.551-21.333-21.333s9.551-21.333 21.333-21.333zM362.667 576c-23.564 0-42.667 19.103-42.667 42.667s19.103 42.667 42.667 42.667c23.564 0 42.667-19.103 42.667-42.667s-19.103-42.667-42.667-42.667zM661.333 576c-23.564 0-42.667 19.103-42.667 42.667s19.103 42.667 42.667 42.667c23.564 0 42.667-19.103 42.667-42.667s-19.103-42.667-42.667-42.667z" />
<glyph unicode="&#xe946;" glyph-name="beer" data-tags="beer" d="M810.667 533.333v-256c47.128 0 85.333 38.205 85.333 85.333v170.667h-85.333zM810.667 192v-21.333c0-94.257-76.41-170.667-170.667-170.667h-384c-94.257 0-170.667 76.41-170.667 170.667v385.581c-26.098 22.094-42.667 55.097-42.667 91.969v77.116c0 94.257 76.41 170.667 170.667 170.667h469.333c94.257 0 170.667-76.41 170.667-170.667v-53.928c0-15.778-3.673-31.339-10.729-45.451-1.252-2.504-2.594-4.934-4.019-7.288h100.082c23.564 0 42.667-19.103 42.667-42.667v-213.333c0-94.257-76.41-170.667-170.667-170.667zM170.667 528.007v-357.341c0-47.128 38.205-85.333 85.333-85.333h384c47.128 0 85.333 38.205 85.333 85.333v402.568c-6.468 1.745-12.858 4.158-19.081 7.27l-23.631 11.816c-17.995 8.997-39.83 4.202-52.398-11.509l-68.014-85.017c-2.95-3.688-6.102-7.209-9.442-10.549-49.987-49.987-131.032-49.987-181.019 0l-63.463 63.463c-12.069 12.069-30.169 15.784-46.016 9.445l-54.423-21.769c-11.885-4.754-24.436-7.577-37.179-8.378zM176.154 615.615l54.423 21.769c47.541 19.017 101.841 7.871 138.048-28.335l63.463-63.463c16.662-16.662 43.677-16.662 60.34 0 1.113 1.113 2.164 2.287 3.147 3.516l68.014 85.017c37.705 47.131 103.21 61.518 157.195 34.526l23.631-11.816c8.050-4.025 17.84-0.762 21.865 7.288 1.131 2.263 1.721 4.758 1.721 7.288v53.928c0 47.128-38.205 85.333-85.333 85.333h-469.333c-47.128 0-85.333-38.205-85.333-85.333v-77.116c0-19.393 15.721-35.113 35.113-35.113 4.467 0 8.893 0.852 13.041 2.511z" />
<glyph unicode="&#xe947;" glyph-name="bicycle" data-tags="bicycle" d="M810.216 582.48l26.909-134.547c103.67-2.717 186.875-87.608 186.875-191.933 0-106.039-85.961-192-192-192s-192 85.961-192 192c0 78.049 46.57 145.221 113.44 175.244l-9.321 46.604-198.802-248.502c-8.097-10.121-20.356-16.013-33.317-16.013h-132.758c-19.402-85.504-95.868-149.333-187.242-149.333-106.039 0-192 85.961-192 192s85.961 192 192 192c27.123 0 52.933-5.624 76.326-15.77l100.151 136.57-15.747 49.866h-54.063c-23.564 0-42.667 19.103-42.667 42.667s19.103 42.667 42.667 42.667h85.333c18.615 0 35.081-12.068 40.686-29.818l17.531-55.515h273.738l-18.74 93.701c-3.989 19.943-21.5 34.299-41.838 34.299h-58.043c-23.564 0-42.667 19.103-42.667 42.667s19.103 42.667 42.667 42.667h58.043c61.015 0 113.548-43.067 125.514-102.897l28.66-143.301c0.264-1.097 0.486-2.205 0.664-3.321zM337.111 381.729c20.303-23.412 35.034-51.788 42.131-83.063h74.54l-53.453 169.269-63.218-86.206zM215.421 360.087c-7.537 1.689-15.375 2.579-23.421 2.579-58.91 0-106.667-47.756-106.667-106.667s47.756-106.667 106.667-106.667c58.91 0 106.667 47.756 106.667 106.667 0 19.547-5.258 37.866-14.436 53.619l-57.824-78.851c-13.935-19.002-40.636-23.11-59.638-9.175s-23.11 40.636-9.175 59.638l57.828 78.856zM469.165 533.333l59.452-188.263 150.611 188.263h-210.062zM770.987 343.505c-27.6-19.28-45.654-51.284-45.654-87.505 0-58.91 47.756-106.667 106.667-106.667s106.667 47.756 106.667 106.667c0 51.134-35.981 93.865-84.006 104.255l19.177-95.887c4.621-23.107-10.364-45.584-33.47-50.206s-45.584 10.364-50.206 33.47l-19.175 95.873z" />
<glyph unicode="&#xe948;" glyph-name="bluetooth" data-tags="bluetooth" d="M469.333 356.906l-186.024-155.018c-18.103-15.085-45.007-12.639-60.092 5.463s-12.639 45.007 5.463 60.092l216.669 180.556-216.669 180.556c-18.103 15.085-20.549 41.989-5.463 60.092s41.989 20.549 60.092 5.463l186.024-155.018v285.474c0 47.128 38.205 85.333 85.333 85.333 20.37 0 40.068-7.287 55.534-20.543l186.873-160.177c35.782-30.671 39.926-84.542 9.256-120.324-4.484-5.231-9.585-9.9-15.191-13.904l-205.732-146.951 205.732-146.951c38.35-27.393 47.232-80.688 19.84-119.038-4.005-5.606-8.673-10.707-13.904-15.191l-186.873-160.177c-35.782-30.671-89.653-26.527-120.324 9.256-13.257 15.466-20.543 35.164-20.543 55.534v285.473zM554.667 71.433l186.873 160.177-186.873 133.481v-293.657zM741.539 664.39l-186.873 160.177v-293.657l186.873 133.481z" />
<glyph unicode="&#xe949;" glyph-name="bluetooth-off" data-tags="bluetooth-off" d="M554.667 365.091v3.459c0-78.148 0-117.659 0-297.117l186.873 160.177-186.873 133.481zM810.978 182.011c-4.005-5.606-8.673-10.707-13.904-15.191l-186.873-160.177c-35.782-30.671-89.653-26.527-120.324 9.256-13.257 15.466-20.543 35.164-20.543 55.534v376.567c0 34.704 39.226 54.891 67.466 34.719l254.339-181.671c38.35-27.393 47.232-80.688 19.84-119.038zM554.667 661.333c0-23.564-19.103-42.667-42.667-42.667s-42.667 19.103-42.667 42.667v163.233c0 47.128 38.205 85.333 85.333 85.333 20.37 0 40.068-7.287 56.213-21.137l56.228-50.295c17.563-15.71 19.065-42.683 3.355-60.246s-42.683-19.065-60.246-3.355l-55.549 49.701v-163.233zM228.683 628.556c-18.103 15.085-20.549 41.989-5.463 60.092s41.989 20.549 60.092 5.463l128.001-106.667c18.103-15.085 20.549-41.989 5.463-60.092s-41.989-20.549-60.092-5.463l-128.001 106.667zM874.039 870.378c16.662 16.662 43.677 16.662 60.34 0s16.662-43.677 0-60.34l-784.417-784.417c-16.662-16.662-43.677-16.662-60.34 0s-16.662 43.677 0 60.34l784.417 784.417z" />
<glyph unicode="&#xe94a;" glyph-name="book" data-tags="book" d="M810.667 192v42.667h-512c-47.128 0-85.333-38.205-85.333-85.333s38.205-85.333 85.333-85.333h512v42.667h-426.667c-23.564 0-42.667 19.103-42.667 42.667s19.103 42.667 42.667 42.667h426.667zM810.667 320v512h-512c-47.128 0-85.333-38.205-85.333-85.333v-449.499c25.103 14.521 54.247 22.832 85.333 22.832h512zM298.667 917.333h512c47.128 0 85.333-38.205 85.333-85.333v-768c0-47.128-38.205-85.333-85.333-85.333h-512c-94.257 0-170.667 76.41-170.667 170.667v597.333c0 94.257 76.41 170.667 170.667 170.667z" />
<glyph unicode="&#xe94b;" glyph-name="book-2" data-tags="book-2" d="M810.667 320v512h-512c-47.128 0-85.333-38.205-85.333-85.333v-449.499c25.103 14.521 54.247 22.832 85.333 22.832h512zM298.667 917.333h512c47.128 0 85.333-38.205 85.333-85.333v-768c0-47.128-38.205-85.333-85.333-85.333h-512c-94.257 0-170.667 76.41-170.667 170.667v597.333c0 94.257 76.41 170.667 170.667 170.667zM298.667 234.667c-47.128 0-85.333-38.205-85.333-85.333s38.205-85.333 85.333-85.333h512v170.667h-512zM341.333 661.333c-23.564 0-42.667 19.103-42.667 42.667s19.103 42.667 42.667 42.667h341.333c23.564 0 42.667-19.103 42.667-42.667s-19.103-42.667-42.667-42.667h-341.333z" />
<glyph unicode="&#xe94c;" glyph-name="bookmark" data-tags="bookmark" d="M341.333 832c-47.128 0-85.333-38.205-85.333-85.333v-675.233l200.466 171.828c31.956 27.391 79.112 27.391 111.068 0l200.466-171.828v675.233c0 47.128-38.205 85.333-85.333 85.333h-341.333zM341.333 917.333h341.333c94.257 0 170.667-76.41 170.667-170.667v-675.233c0-47.128-38.205-85.333-85.333-85.333-20.37 0-40.068 7.287-55.534 20.543l-200.466 171.828-200.466-171.828c-35.782-30.671-89.653-26.527-120.324 9.256-13.257 15.466-20.543 35.164-20.543 55.534v675.233c0 94.257 76.41 170.667 170.667 170.667z" />
<glyph unicode="&#xe94d;" glyph-name="bookmark-add" data-tags="bookmark-add" d="M810.667 426.667v-42.667c0-23.564-19.103-42.667-42.667-42.667s-42.667 19.103-42.667 42.667v42.667h-42.667c-23.564 0-42.667 19.103-42.667 42.667s19.103 42.667 42.667 42.667h42.667v42.667c0 23.564 19.103 42.667 42.667 42.667s42.667-19.103 42.667-42.667v-42.667h42.667c23.564 0 42.667-19.103 42.667-42.667s-19.103-42.667-42.667-42.667h-42.667zM810.667 224.306v-152.872c0-47.128-38.205-85.333-85.333-85.333-20.37 0-40.068 7.287-55.534 20.543l-200.466 171.828-200.466-171.828c-35.782-30.671-89.653-26.527-120.324 9.256-13.257 15.466-20.543 35.164-20.543 55.534v675.233c0 94.257 76.41 170.667 170.667 170.667h341.333c94.257 0 170.667-76.41 170.667-170.667v-17.44c121.076-20.313 213.333-125.613 213.333-252.46s-92.258-232.148-213.333-252.46zM725.333 729.226v17.44c0 47.128-38.205 85.333-85.333 85.333h-341.333c-47.128 0-85.333-38.205-85.333-85.333v-675.233l200.466 171.828c31.956 27.391 79.112 27.391 111.068 0l200.466-171.828v152.872c-121.076 20.313-213.333 125.613-213.333 252.46s92.258 232.148 213.333 252.46zM768 306.099c94.257 0 170.667 76.41 170.667 170.667s-76.41 170.667-170.667 170.667c-94.257 0-170.667-76.41-170.667-170.667s76.41-170.667 170.667-170.667z" />
<glyph unicode="&#xe94e;" glyph-name="bookmark-remove" data-tags="bookmark-remove" d="M810.667 224.306v-152.872c0-47.128-38.205-85.333-85.333-85.333-20.37 0-40.068 7.287-55.534 20.543l-200.466 171.828-200.466-171.828c-35.782-30.671-89.653-26.527-120.324 9.256-13.257 15.466-20.543 35.164-20.543 55.534v675.233c0 94.257 76.41 170.667 170.667 170.667h341.333c94.257 0 170.667-76.41 170.667-170.667v-17.44c121.076-20.313 213.333-125.613 213.333-252.46s-92.258-232.148-213.333-252.46zM725.333 729.226v17.44c0 47.128-38.205 85.333-85.333 85.333h-341.333c-47.128 0-85.333-38.205-85.333-85.333v-675.233l200.466 171.828c31.956 27.391 79.112 27.391 111.068 0l200.466-171.828v152.872c-121.076 20.313-213.333 125.613-213.333 252.46s92.258 232.148 213.333 252.46zM768 306.099c94.257 0 170.667 76.41 170.667 170.667s-76.41 170.667-170.667 170.667c-94.257 0-170.667-76.41-170.667-170.667s76.41-170.667 170.667-170.667zM853.333 512c23.564 0 42.667-19.103 42.667-42.667s-19.103-42.667-42.667-42.667h-170.667c-23.564 0-42.667 19.103-42.667 42.667s19.103 42.667 42.667 42.667h170.667z" />
<glyph unicode="&#xe94f;" glyph-name="book-open" data-tags="book-open" d="M469.333 711.058l-283.402 51.528c-5.037 0.916-10.146 1.376-15.265 1.376-47.128 0-85.333-38.205-85.333-85.333v-422.47c0-41.24 29.493-76.58 70.068-83.957l313.932-57.078v595.934zM554.667 711.058v-595.934l313.932 57.078c40.575 7.377 70.068 42.716 70.068 83.957v422.47c0 5.119-0.461 10.228-1.376 15.265-8.431 46.368-52.854 77.123-99.222 68.692l-283.402-51.528zM201.196 846.543l295.539-53.734c10.094-1.835 20.436-1.835 30.53 0l295.539 53.734c92.736 16.861 181.582-44.648 198.444-137.384 1.832-10.073 2.753-20.291 2.753-30.53v-422.47c0-82.481-58.986-153.159-140.137-167.914l-341.333-62.061c-20.188-3.67-40.872-3.67-61.060 0l-341.333 62.061c-81.15 14.755-140.137 85.433-140.137 167.914v422.47c0 94.257 76.41 170.667 170.667 170.667 10.239 0 20.456-0.921 30.53-2.753z" />
<glyph unicode="&#xe950;" glyph-name="bottle" data-tags="bottle" d="M425.33 661.333c-5.739-45.578-29.698-87.276-66.93-115.2l-68.267-51.2c-21.487-16.116-34.133-41.407-34.133-68.267v-277.333c0-47.128 38.205-85.333 85.333-85.333h341.333c47.128 0 85.333 38.205 85.333 85.333v277.333c0 26.859-12.646 52.151-34.133 68.267l-68.267 51.2c-37.231 27.924-61.191 69.622-66.93 115.2h-173.341zM426.667 746.667h170.667v85.333h-170.667v-85.333zM238.933 563.2l68.267 51.2c21.487 16.116 34.133 41.407 34.133 68.267v149.333c0 47.128 38.205 85.333 85.333 85.333h170.667c47.128 0 85.333-38.205 85.333-85.333v-149.333c0-26.859 12.646-52.151 34.133-68.267l68.267-51.2c42.975-32.231 68.267-82.815 68.267-136.533v-277.333c0-94.257-76.41-170.667-170.667-170.667h-341.333c-94.257 0-170.667 76.41-170.667 170.667v277.333c0 53.719 25.292 104.302 68.267 136.533zM362.667 426.667h298.667c23.564 0 42.667-19.103 42.667-42.667v-213.333c0-23.564-19.103-42.667-42.667-42.667h-298.667c-23.564 0-42.667 19.103-42.667 42.667v213.333c0 23.564 19.103 42.667 42.667 42.667zM405.333 213.333h213.333v128h-213.333v-128z" />
<glyph unicode="&#xe951;" glyph-name="box" data-tags="box" d="M554.667 47.703l294.162 147.081c28.91 14.455 47.171 44.003 47.171 76.324v353.783c0 3.21-0.18 6.392-0.533 9.535l-340.801-170.146v-416.578zM469.333 47.703v416.646l-340.679 171.105c-0.433-3.476-0.654-7.002-0.654-10.562v-353.783c0-32.322 18.262-61.87 47.171-76.324l294.162-147.081zM843.522 703.87l-293.359 146.68c-24.024 12.012-52.301 12.012-76.324 0l-292.314-146.157 330.531-166.008 331.467 165.486zM588.324 926.874l298.667-149.333c57.819-28.91 94.342-88.005 94.342-152.649v-353.783c0-64.644-36.523-123.739-94.342-152.649l-298.667-149.333c-48.047-24.024-104.602-24.024-152.649 0l-298.667 149.333c-57.819 28.91-94.342 88.005-94.342 152.649v353.783c0 64.644 36.523 123.739 94.342 152.649l298.667 149.333c48.047 24.024 104.602 24.024 152.649 0z" />
<glyph unicode="&#xe952;" glyph-name="bra" data-tags="bra" d="M149.333 704c-11.782 0-21.333-9.551-21.333-21.333v-362.667c0-94.257 76.41-170.667 170.667-170.667h426.667c94.257 0 170.667 76.41 170.667 170.667v362.667c0 11.782-9.551 21.333-21.333 21.333s-21.333-9.551-21.333-21.333v-192c0-23.564-19.103-42.667-42.667-42.667h-7.414c-96.966 0-185.609-54.785-228.973-141.513l-24.117-48.234c-15.724-31.447-60.601-31.447-76.324 0l-24.117 48.234c-43.364 86.729-132.008 141.513-228.973 141.513h-7.414c-23.564 0-42.667 19.103-42.667 42.667v192c0 11.782-9.551 21.333-21.333 21.333zM768 682.667c0 58.91 47.756 106.667 106.667 106.667s106.667-47.756 106.667-106.667v-362.667c0-141.385-114.615-256-256-256h-426.667c-141.385 0-256 114.615-256 256v362.667c0 58.91 47.756 106.667 106.667 106.667s106.667-47.756 106.667-106.667v-151.153c105.669-10.949 200.499-70.657 256-161.516 55.501 90.859 150.331 150.567 256 161.516v151.153z" />
<glyph unicode="&#xe953;" glyph-name="briefcase" data-tags="briefcase" d="M298.666 704v42.667c0 70.692 57.308 128 128 128h170.667c70.692 0 128-57.308 128-128v-42.667h85.334c94.257 0 170.667-76.41 170.667-170.667v-341.333c0-94.257-76.41-170.667-170.667-170.667h-597.333c-94.257 0-170.667 76.41-170.667 170.667v341.333c0 94.257 76.41 170.667 170.667 170.667h85.333zM384 704h256v42.667c0 23.564-19.103 42.667-42.667 42.667h-170.667c-23.564 0-42.667-19.103-42.667-42.667v-42.667zM298.666 618.667h-85.333c-47.128 0-85.333-38.205-85.333-85.333v-341.333c0-47.128 38.205-85.333 85.333-85.333h85.333v512zM384 618.667v-512h256v512h-256zM725.333 618.667v-512h85.334c47.128 0 85.333 38.205 85.333 85.333v341.333c0 47.128-38.205 85.333-85.333 85.333h-85.334z" />
<glyph unicode="&#xe954;" glyph-name="browser" data-tags="browser" d="M853.333 618.667v85.333c0 47.128-38.205 85.333-85.333 85.333h-512c-47.128 0-85.333-38.205-85.333-85.333v-85.333h682.667zM853.333 533.333h-682.667v-341.333c0-47.128 38.205-85.333 85.333-85.333h512c47.128 0 85.333 38.205 85.333 85.333v341.333zM256 874.667h512c94.257 0 170.667-76.41 170.667-170.667v-512c0-94.257-76.41-170.667-170.667-170.667h-512c-94.257 0-170.667 76.41-170.667 170.667v512c0 94.257 76.41 170.667 170.667 170.667zM213.333 704c0 23.564 19.103 42.667 42.667 42.667s42.667-19.103 42.667-42.667c0-23.564-19.103-42.667-42.667-42.667s-42.667 19.103-42.667 42.667zM341.333 704c0 23.564 19.103 42.667 42.667 42.667s42.667-19.103 42.667-42.667c0-23.564-19.103-42.667-42.667-42.667s-42.667 19.103-42.667 42.667zM469.333 704c0 23.564 19.103 42.667 42.667 42.667s42.667-19.103 42.667-42.667c0-23.564-19.103-42.667-42.667-42.667s-42.667 19.103-42.667 42.667z" />
<glyph unicode="&#xe955;" glyph-name="brush" data-tags="brush" d="M341.333 64h128v128c0 23.564 19.103 42.667 42.667 42.667s42.667-19.103 42.667-42.667v-128h128v128c0 23.564 19.103 42.667 42.667 42.667s42.667-19.103 42.667-42.667v-128h42.667c23.564 0 42.667 19.103 42.667 42.667v213.333h-682.667v-213.333c0-23.564 19.103-42.667 42.667-42.667h42.667v128c0 23.564 19.103 42.667 42.667 42.667s42.667-19.103 42.667-42.667v-128zM938.667 320v-213.333c0-70.692-57.308-128-128-128h-597.333c-70.692 0-128 57.308-128 128v213.333c-23.564 0-42.667 19.103-42.667 42.667v85.333c0 70.692 57.308 128 128 128h213.333v213.333c0 70.692 57.308 128 128 128s128-57.308 128-128v-213.333h213.333c70.692 0 128-57.308 128-128v-85.333c0-23.564-19.103-42.667-42.667-42.667zM896 448c0 23.564-19.103 42.667-42.667 42.667h-256c-23.564 0-42.667 19.103-42.667 42.667v256c0 23.564-19.103 42.667-42.667 42.667s-42.667-19.103-42.667-42.667v-256c0-23.564-19.103-42.667-42.667-42.667h-256c-23.564 0-42.667-19.103-42.667-42.667v-42.667h768v42.667z" />
<glyph unicode="&#xe956;" glyph-name="bucket" data-tags="bucket" d="M234.667 601.648v166.352c0 82.475 66.859 149.333 149.333 149.333 63.67 0 118.034-39.847 139.514-95.963l357.646-357.646c3.539-3.539 6.427-7.673 8.534-12.212l88.81-191.413c32.078-69.138 2.035-151.191-67.103-183.269-18.199-8.444-38.020-12.818-58.083-12.818-76.904 0-139.247 62.343-139.247 139.247 0 13.039 1.831 25.98 5.414 38.45l-200.363-200.363c-66.649-66.649-174.71-66.649-241.359 0l-181.019 181.019c-66.649 66.649-66.649 174.71 0 241.359l137.924 137.924zM320 686.981l116.962 116.962c-11.515 16.934-30.939 28.057-52.962 28.057-35.346 0-64-28.654-64-64v-81.019zM448 694.302l-290.917-290.917c-33.325-33.325-33.325-87.355 0-120.68l181.019-181.019c33.325-33.325 87.355-33.325 120.68 0l331.869 331.869-257.317 257.317v-242.871c0-23.564-19.103-42.667-42.667-42.667s-42.667 19.103-42.667 42.667v246.302zM804.148 225.372c-3.127-6.953-4.744-14.49-4.744-22.113 0-29.776 24.138-53.914 53.914-53.914 7.657 0 15.222 1.669 22.168 4.892 26.387 12.243 37.854 43.559 25.611 69.947l-49.502 106.691-47.447-105.503z" />
<glyph unicode="&#xe957;" glyph-name="bug" data-tags="bug" d="M214.531 223.152c-14.538 36.562-22.531 76.439-22.531 118.182v21.333h-106.667c-23.564 0-42.667 19.103-42.667 42.667s19.103 42.667 42.667 42.667h106.667v21.333c0 41.743 7.993 81.619 22.531 118.182l-100.024 33.341c-22.355 7.452-34.436 31.615-26.985 53.97s31.615 34.436 53.97 26.985l115.884-38.628c30.975 40.624 71.451 73.614 118.113 95.655l-64.325 64.325c-16.662 16.662-16.662 43.677 0 60.34s43.677 16.662 60.34 0l90.51-90.51c2.093-2.093 3.924-4.35 5.491-6.729 14.542 2.023 29.397 3.069 44.496 3.069 16.74 0 33.179-1.285 49.225-3.763 1.663 2.635 3.643 5.127 5.938 7.423l90.51 90.51c16.662 16.662 43.677 16.662 60.34 0s16.662-43.677 0-60.34l-66.004-66.004c45.187-22.022 84.416-54.371 114.615-93.977l115.884 38.628c22.355 7.452 46.518-4.63 53.97-26.985s-4.63-46.518-26.985-53.97l-100.024-33.341c14.538-36.562 22.531-76.439 22.531-118.182v-21.333h106.667c23.564 0 42.667-19.103 42.667-42.667s-19.103-42.667-42.667-42.667h-106.667v-21.333c0-41.743-7.993-81.619-22.531-118.182l100.024-33.341c22.355-7.452 34.436-31.615 26.985-53.97s-31.615-34.436-53.97-26.985l-115.884 38.628c-58.461-76.672-150.764-126.151-254.624-126.151s-196.163 49.479-254.624 126.151l-115.884-38.628c-22.355-7.452-46.518 4.63-53.97 26.985s4.63 46.518 26.985 53.97l100.024 33.341zM512 704c-129.603 0-234.667-105.064-234.667-234.667v-128c0-129.603 105.064-234.667 234.667-234.667s234.667 105.064 234.667 234.667v128c0 129.603-105.064 234.667-234.667 234.667zM426.667 277.333c-23.564 0-42.667 19.103-42.667 42.667s19.103 42.667 42.667 42.667h170.667c23.564 0 42.667-19.103 42.667-42.667s-19.103-42.667-42.667-42.667h-170.667zM426.667 448c-23.564 0-42.667 19.103-42.667 42.667s19.103 42.667 42.667 42.667h170.667c23.564 0 42.667-19.103 42.667-42.667s-19.103-42.667-42.667-42.667h-170.667z" />
<glyph unicode="&#xe958;" glyph-name="bus" data-tags="bus" d="M867.383 149.333c-17.572-49.715-64.985-85.333-120.717-85.333s-103.145 35.618-120.717 85.333h-227.9c-17.572-49.715-64.985-85.333-120.717-85.333s-103.145 35.618-120.717 85.333h-71.283c-47.128 0-85.333 38.205-85.333 85.333v426.667c0 70.692 57.308 128 128 128h672.594c48.483 0 92.805-27.392 114.487-70.757l90.901-181.802c11.849-23.698 18.018-49.829 18.018-76.324v-225.783c0-47.128-38.205-85.333-85.333-85.333h-71.283zM867.383 234.667h71.283v128h-170.667c-70.692 0-128 57.308-128 128h-554.667v-256h71.283c17.572 49.715 64.985 85.333 120.717 85.333s103.145-35.618 120.717-85.333h227.9c17.572 49.715 64.985 85.333 120.717 85.333s103.145-35.618 120.717-85.333zM85.333 576h128v128h-85.333c-23.564 0-42.667-19.103-42.667-42.667v-85.333zM938.667 448v12.45c0 13.248-3.084 26.313-9.009 38.162l-90.901 181.802c-7.227 14.455-22.001 23.586-38.162 23.586h-75.261v-213.333c0-23.564 19.103-42.667 42.667-42.667h170.667zM640 704h-128v-128h128v128zM426.667 704h-128v-128h128v128zM746.667 149.333c23.564 0 42.667 19.103 42.667 42.667s-19.103 42.667-42.667 42.667c-23.564 0-42.667-19.103-42.667-42.667s19.103-42.667 42.667-42.667zM277.333 149.333c23.564 0 42.667 19.103 42.667 42.667s-19.103 42.667-42.667 42.667c-23.564 0-42.667-19.103-42.667-42.667s19.103-42.667 42.667-42.667z" />
<glyph unicode="&#xe959;" glyph-name="calculator" data-tags="calculator" d="M298.667 917.333h426.667c94.257 0 170.667-76.41 170.667-170.667v-597.333c0-94.257-76.41-170.667-170.667-170.667h-426.667c-94.257 0-170.667 76.41-170.667 170.667v597.333c0 94.257 76.41 170.667 170.667 170.667zM298.667 832c-47.128 0-85.333-38.205-85.333-85.333v-597.333c0-47.128 38.205-85.333 85.333-85.333h426.667c47.128 0 85.333 38.205 85.333 85.333v597.333c0 47.128-38.205 85.333-85.333 85.333h-426.667zM362.667 789.333h298.667c58.91 0 106.667-47.756 106.667-106.667s-47.756-106.667-106.667-106.667h-298.667c-58.91 0-106.667 47.756-106.667 106.667s47.756 106.667 106.667 106.667zM362.667 704c-11.782 0-21.333-9.551-21.333-21.333s9.551-21.333 21.333-21.333h298.667c11.782 0 21.333 9.551 21.333 21.333s-9.551 21.333-21.333 21.333h-298.667zM341.333 405.333c-23.564 0-42.667 19.103-42.667 42.667s19.103 42.667 42.667 42.667c23.564 0 42.667-19.103 42.667-42.667s-19.103-42.667-42.667-42.667zM341.333 277.333c-23.564 0-42.667 19.103-42.667 42.667s19.103 42.667 42.667 42.667c23.564 0 42.667-19.103 42.667-42.667s-19.103-42.667-42.667-42.667zM512 405.333c-23.564 0-42.667 19.103-42.667 42.667s19.103 42.667 42.667 42.667c23.564 0 42.667-19.103 42.667-42.667s-19.103-42.667-42.667-42.667zM512 277.333c-23.564 0-42.667 19.103-42.667 42.667s19.103 42.667 42.667 42.667c23.564 0 42.667-19.103 42.667-42.667s-19.103-42.667-42.667-42.667zM682.667 405.333c-23.564 0-42.667 19.103-42.667 42.667s19.103 42.667 42.667 42.667c23.564 0 42.667-19.103 42.667-42.667s-19.103-42.667-42.667-42.667zM682.667 149.333c-23.564 0-42.667 19.103-42.667 42.667s19.103 42.667 42.667 42.667c23.564 0 42.667-19.103 42.667-42.667s-19.103-42.667-42.667-42.667zM512 149.333c-23.564 0-42.667 19.103-42.667 42.667s19.103 42.667 42.667 42.667c23.564 0 42.667-19.103 42.667-42.667s-19.103-42.667-42.667-42.667zM341.333 149.333c-23.564 0-42.667 19.103-42.667 42.667s19.103 42.667 42.667 42.667c23.564 0 42.667-19.103 42.667-42.667s-19.103-42.667-42.667-42.667zM682.667 277.333c-23.564 0-42.667 19.103-42.667 42.667s19.103 42.667 42.667 42.667c23.564 0 42.667-19.103 42.667-42.667s-19.103-42.667-42.667-42.667z" />
<glyph unicode="&#xe95a;" glyph-name="calender" data-tags="calender" d="M640 704h-256v-42.667c0-23.564-19.103-42.667-42.667-42.667s-42.667 19.103-42.667 42.667v42.667h-42.667c-47.128 0-85.333-38.205-85.333-85.333v-42.667h682.667v42.667c0 47.128-38.205 85.333-85.333 85.333h-42.667v-42.667c0-23.564-19.103-42.667-42.667-42.667s-42.667 19.103-42.667 42.667v42.667zM725.333 789.333h42.667c94.257 0 170.667-76.41 170.667-170.667v-426.667c0-94.257-76.41-170.667-170.667-170.667h-512c-94.257 0-170.667 76.41-170.667 170.667v426.667c0 94.257 76.41 170.667 170.667 170.667h42.667v42.667c0 23.564 19.103 42.667 42.667 42.667s42.667-19.103 42.667-42.667v-42.667h256v42.667c0 23.564 19.103 42.667 42.667 42.667s42.667-19.103 42.667-42.667v-42.667zM853.333 490.667h-682.667v-298.667c0-47.128 38.205-85.333 85.333-85.333h512c47.128 0 85.333 38.205 85.333 85.333v298.667z" />
<glyph unicode="&#xe95b;" glyph-name="calender-add" data-tags="calender-add" d="M640 704h-256v-42.667c0-23.564-19.103-42.667-42.667-42.667s-42.667 19.103-42.667 42.667v42.667h-42.667c-47.128 0-85.333-38.205-85.333-85.333v-42.667h682.667v42.667c0 47.128-38.205 85.333-85.333 85.333h-42.667v-42.667c0-23.564-19.103-42.667-42.667-42.667s-42.667 19.103-42.667 42.667v42.667zM725.333 789.333h42.667c94.257 0 170.667-76.41 170.667-170.667v-170.667c0-23.564-19.103-42.667-42.667-42.667s-42.667 19.103-42.667 42.667v42.667h-682.667v-298.667c0-47.128 38.205-85.333 85.333-85.333h298.667c23.564 0 42.667-19.103 42.667-42.667s-19.103-42.667-42.667-42.667h-298.667c-94.257 0-170.667 76.41-170.667 170.667v426.667c0 94.257 76.41 170.667 170.667 170.667h42.667v42.667c0 23.564 19.103 42.667 42.667 42.667s42.667-19.103 42.667-42.667v-42.667h256v42.667c0 23.564 19.103 42.667 42.667 42.667s42.667-19.103 42.667-42.667v-42.667zM853.333 149.333v-85.333c0-23.564-19.103-42.667-42.667-42.667s-42.667 19.103-42.667 42.667v85.333h-85.333c-23.564 0-42.667 19.103-42.667 42.667s19.103 42.667 42.667 42.667h85.333v85.333c0 23.564 19.103 42.667 42.667 42.667s42.667-19.103 42.667-42.667v-85.333h85.333c23.564 0 42.667-19.103 42.667-42.667s-19.103-42.667-42.667-42.667h-85.333z" />
<glyph unicode="&#xe95c;" glyph-name="calender-check" data-tags="calender-check" d="M170.667 576h682.667v42.667c0 47.128-38.205 85.333-85.333 85.333h-42.667v-42.667c0-23.564-19.103-42.667-42.667-42.667s-42.667 19.103-42.667 42.667v42.667h-256v-42.667c0-23.564-19.103-42.667-42.667-42.667s-42.667 19.103-42.667 42.667v42.667h-42.667c-47.128 0-85.333-38.205-85.333-85.333v-42.667zM853.333 490.667h-682.667v-298.667c0-47.128 38.205-85.333 85.333-85.333h256c23.564 0 42.667-19.103 42.667-42.667s-19.103-42.667-42.667-42.667h-256c-94.257 0-170.667 76.41-170.667 170.667v426.667c0 94.257 76.41 170.667 170.667 170.667h42.667v42.667c0 23.564 19.103 42.667 42.667 42.667s42.667-19.103 42.667-42.667v-42.667h256v42.667c0 23.564 19.103 42.667 42.667 42.667s42.667-19.103 42.667-42.667v-42.667h42.667c94.257 0 170.667-76.41 170.667-170.667v-170.667c0-23.564-19.103-42.667-42.667-42.667s-42.667 19.103-42.667 42.667v42.667zM667.138 256l90.51-90.51 150.849 150.849c16.662 16.662 43.677 16.662 60.34 0s16.662-43.677 0-60.34l-181.019-181.019c-16.662-16.662-43.677-16.662-60.34 0l-120.68 120.68c-16.662 16.662-16.662 43.677 0 60.34s43.677 16.662 60.34 0z" />
<glyph unicode="&#xe95d;" glyph-name="camera" data-tags="camera" d="M310.581 746.667l23.217 69.651c11.615 34.845 44.224 58.349 80.954 58.349h194.495c36.73 0 69.339-23.503 80.954-58.349l23.217-69.651h97.248c94.257 0 170.667-76.41 170.667-170.667v-384c0-94.257-76.41-170.667-170.667-170.667h-597.333c-94.257 0-170.667 76.41-170.667 170.667v384c0 94.257 76.41 170.667 170.667 170.667h97.248zM391.535 719.682c-11.615-34.845-44.224-58.349-80.954-58.349h-97.248c-47.128 0-85.333-38.205-85.333-85.333v-384c0-47.128 38.205-85.333 85.333-85.333h597.333c47.128 0 85.333 38.205 85.333 85.333v384c0 47.128-38.205 85.333-85.333 85.333h-97.248c-36.73 0-69.339 23.503-80.954 58.349l-23.217 69.651h-194.495l-23.217-69.651zM512 192c-117.821 0-213.333 95.513-213.333 213.333s95.513 213.333 213.333 213.333c117.821 0 213.333-95.513 213.333-213.333s-95.513-213.333-213.333-213.333zM512 277.333c70.692 0 128 57.308 128 128s-57.308 128-128 128c-70.692 0-128-57.308-128-128s57.308-128 128-128z" />
<glyph unicode="&#xe95e;" glyph-name="camera-focus" data-tags="camera-focus" d="M128 576v85.333c0 47.128 38.205 85.333 85.333 85.333h85.333c23.564 0 42.667 19.103 42.667 42.667s-19.103 42.667-42.667 42.667h-85.333c-94.257 0-170.667-76.41-170.667-170.667v-85.333c0-23.564 19.103-42.667 42.667-42.667s42.667 19.103 42.667 42.667zM725.333 746.667h85.333c47.128 0 85.333-38.205 85.333-85.333v-85.333c0-23.564 19.103-42.667 42.667-42.667s42.667 19.103 42.667 42.667v85.333c0 94.257-76.41 170.667-170.667 170.667h-85.333c-23.564 0-42.667-19.103-42.667-42.667s19.103-42.667 42.667-42.667zM896 320v-85.333c0-47.128-38.205-85.333-85.333-85.333h-85.333c-23.564 0-42.667-19.103-42.667-42.667s19.103-42.667 42.667-42.667h85.333c94.257 0 170.667 76.41 170.667 170.667v85.333c0 23.564-19.103 42.667-42.667 42.667s-42.667-19.103-42.667-42.667zM298.667 149.333c23.564 0 42.667-19.103 42.667-42.667s-19.103-42.667-42.667-42.667h-85.333c-94.257 0-170.667 76.41-170.667 170.667v85.333c0 23.564 19.103 42.667 42.667 42.667s42.667-19.103 42.667-42.667v-85.333c0-47.128 38.205-85.333 85.333-85.333h85.333zM512 234.667c-117.821 0-213.333 95.513-213.333 213.333s95.513 213.333 213.333 213.333c117.821 0 213.333-95.513 213.333-213.333s-95.513-213.333-213.333-213.333zM512 320c70.692 0 128 57.308 128 128s-57.308 128-128 128c-70.692 0-128-57.308-128-128s57.308-128 128-128z" />
<glyph unicode="&#xe95f;" glyph-name="camera-off" data-tags="camera-off" d="M862.874 738.534c68.721-22.056 118.46-86.486 118.46-162.534v-384c0-94.257-76.41-170.667-170.667-170.667h-597.333c-19.918 0-39.372 3.433-57.662 9.998l-35.879-35.879c-16.662-16.662-43.677-16.662-60.34 0s-16.662 43.677 0 60.34l56.451 56.451c0.422 0.441 0.852 0.871 1.29 1.29l223.924 223.924c0.362 0.376 0.732 0.746 1.11 1.11l236.539 236.539c0.364 0.378 0.734 0.748 1.11 1.11l294.162 294.162c16.662 16.662 43.677 16.662 60.34 0s16.662-43.677 0-60.34l-71.505-71.505zM231.006 106.667h579.66c47.128 0 85.333 38.205 85.333 85.333v384c0 47.128-38.205 85.333-85.333 85.333h-24.994l-114.235-114.235c34.148-38.373 53.895-88.426 53.895-141.765 0-117.821-95.513-213.333-213.333-213.333-53.339 0-103.393 19.747-141.765 53.895l-139.228-139.228zM430.745 306.405c22.483-18.495 50.96-29.072 81.255-29.072 70.692 0 128 57.308 128 128 0 30.295-10.577 58.772-29.072 81.255l-180.183-180.183zM310.581 746.667l23.217 69.651c11.615 34.845 44.224 58.349 80.954 58.349h194.495c18.009 0 35.396-5.676 49.833-16.062 14.48-10.417 25.41-25.151 31.121-42.286 7.452-22.355-4.63-46.518-26.985-53.97s-46.518 4.63-53.97 26.985h-194.495l-32.942-98.826c-5.808-17.423-22.112-29.174-40.477-29.174h-128c-47.128 0-85.333-38.205-85.333-85.333v-320c0-23.564-19.103-42.667-42.667-42.667s-42.667 19.103-42.667 42.667v320c0 94.257 76.41 170.667 170.667 170.667h97.248z" />
<glyph unicode="&#xe960;" glyph-name="camera-switch" data-tags="camera-switch" d="M231.006 149.333h536.994c47.128 0 85.333 38.205 85.333 85.333v170.667c0 23.564 19.103 42.667 42.667 42.667s42.667-19.103 42.667-42.667v-170.667c0-94.257-76.41-170.667-170.667-170.667h-536.994l47.843-47.843c16.662-16.662 16.662-43.677 0-60.34s-43.677-16.662-60.34 0l-90.51 90.51c-33.325 33.325-33.325 87.355 0 120.68l90.51 90.51c16.662 16.662 43.677 16.662 60.34 0s16.662-43.677 0-60.34l-47.843-47.843zM792.994 746.667h-536.994c-47.128 0-85.333-38.205-85.333-85.333v-170.667c0-23.564-19.103-42.667-42.667-42.667s-42.667 19.103-42.667 42.667v170.667c0 94.257 76.41 170.667 170.667 170.667h536.994l-47.843 47.843c-16.662 16.662-16.662 43.677 0 60.34s43.677 16.662 60.34 0l90.51-90.51c33.325-33.325 33.325-87.355 0-120.68l-90.51-90.51c-16.662-16.662-43.677-16.662-60.34 0s-16.662 43.677 0 60.34l47.843 47.843zM512 277.333c-94.257 0-170.667 76.41-170.667 170.667s76.41 170.667 170.667 170.667c94.257 0 170.667-76.41 170.667-170.667s-76.41-170.667-170.667-170.667zM512 362.667c47.128 0 85.333 38.205 85.333 85.333s-38.205 85.333-85.333 85.333c-47.128 0-85.333-38.205-85.333-85.333s38.205-85.333 85.333-85.333z" />
<glyph unicode="&#xe961;" glyph-name="capsule" data-tags="capsule" d="M330.981 568.68l-120.68-120.68c-83.312-83.312-83.312-218.387 0-301.699s218.387-83.312 301.699 0l120.68 120.68-301.699 301.699zM391.32 629.019l301.699-301.699 120.68 120.68c83.312 83.312 83.312 218.387 0 301.699s-218.387 83.312-301.699 0l-120.68-120.68zM149.961 508.34l301.699 301.699c116.637 116.637 305.742 116.637 422.378 0s116.637-305.742 0-422.378l-301.699-301.699c-116.637-116.637-305.742-116.637-422.378 0s-116.637 305.742 0 422.378zM783.529 711.32c16.662-16.662 16.662-43.677 0-60.34s-43.677-16.662-60.34 0c-33.325 33.325-87.355 33.325-120.68 0-16.662-16.662-43.677-16.662-60.34 0s-16.662 43.677 0 60.34c66.649 66.649 174.71 66.649 241.359 0z" />
<glyph unicode="&#xe962;" glyph-name="car" data-tags="car" d="M603.517 256c18.358 61.685 75.501 106.667 143.149 106.667s124.791-44.982 143.149-106.667h48.851v106.667c0 13.43-6.323 26.076-17.067 34.133l-68.267 51.2h-256c-70.692 0-128 57.308-128 128v128h-78.409c-36.73 0-69.339-23.503-80.954-58.349l-29.174-87.523c-21.923-65.768-83.47-110.129-152.795-110.129-23.564 0-42.667-19.103-42.667-42.667v-149.333h70.184c18.358 61.685 75.501 106.667 143.149 106.667s124.791-44.982 143.149-106.667h161.701zM603.517 170.667h-161.701c-18.358-61.685-75.501-106.667-143.149-106.667s-124.791 44.982-143.149 106.667h-70.184c-47.128 0-85.333 38.205-85.333 85.333v149.333c0 70.692 57.308 128 128 128 32.595 0 61.533 20.857 71.841 51.78l29.174 87.523c23.23 69.69 88.448 116.697 161.909 116.697h247.749c69.786 0 132.542-42.488 158.46-107.283l39.818-99.545c5.813-14.531 15.509-27.184 28.030-36.575l107.819-80.864c32.231-24.173 51.2-62.111 51.2-102.4v-106.667c0-47.128-38.205-85.333-85.333-85.333h-48.851c-18.358-61.685-75.501-106.667-143.149-106.667s-124.791 44.982-143.149 106.667zM554.667 704v-128c0-23.564 19.103-42.667 42.667-42.667h168.554c-3.040 5.651-5.769 11.485-8.166 17.48l-39.818 99.545c-12.959 32.398-44.337 53.641-79.23 53.641h-84.006zM746.667 149.333c35.346 0 64 28.654 64 64s-28.654 64-64 64c-35.346 0-64-28.654-64-64s28.654-64 64-64zM298.667 149.333c35.346 0 64 28.654 64 64s-28.654 64-64 64c-35.346 0-64-28.654-64-64s28.654-64 64-64z" />
<glyph unicode="&#xe963;" glyph-name="caret-down" data-tags="caret-down" d="M268.497 515.66l183.163-183.163c33.325-33.325 87.355-33.325 120.68 0l183.163 183.163c16.662 16.662 16.662 43.677 0 60.34s-43.677 16.662-60.34 0l-183.163-183.163-183.163 183.163c-16.662 16.662-43.677 16.662-60.34 0s-16.662-43.677 0-60.34z" />
<glyph unicode="&#xe964;" glyph-name="caret-up" data-tags="caret-up" d="M755.503 380.34l-183.163 183.163c-33.325 33.325-87.355 33.325-120.68 0l-183.163-183.163c-16.662-16.662-16.662-43.677 0-60.34s43.677-16.662 60.34 0l183.163 183.163 183.163-183.163c16.662-16.662 43.677-16.662 60.34 0s16.662 43.677 0 60.34z" />
<glyph unicode="&#xe965;" glyph-name="cat" data-tags="cat" d="M474.31 427.983c-3.177 5.969-4.977 12.783-4.977 20.017 0 23.564 19.103 42.667 42.667 42.667s42.667-19.103 42.667-42.667c0-7.249-1.808-14.076-4.997-20.055l9.875-9.953c10.302-10.383 27.070-10.449 37.453-0.147 2.006 1.99 3.681 4.289 4.96 6.809 10.67 21.010 36.351 29.393 57.362 18.723s29.393-36.351 18.723-57.362c-5.403-10.638-12.473-20.343-20.943-28.747-39.702-39.391-101.515-42.879-145.135-10.624-5.224-3.882-10.787-7.305-16.626-10.224-55.045-27.522-121.978-5.211-149.501 49.834-10.538 21.076-1.995 46.705 19.081 57.243s46.705 1.995 57.243-19.081c6.446-12.892 22.122-18.117 35.014-11.671 2.509 1.254 4.799 2.905 6.783 4.889l10.352 10.352zM391.579 814.77c38.19 11.214 78.603 17.23 120.421 17.23 41.815 0 82.226-6.015 120.413-17.228l117.929 82.55c38.609 27.026 91.817 17.637 118.843-20.972 12.095-17.279 17.363-38.425 14.786-59.359l-20.827-169.221c47.624-68.849 75.522-152.384 75.522-242.436 0-37.983-4.963-74.806-14.276-109.857l56.177-32.434c20.407-11.782 27.399-37.877 15.617-58.284s-37.877-27.399-58.284-15.617l-44.126 25.476c-6.388-12.762-13.396-25.159-20.986-37.151l43.779-25.276c20.407-11.782 27.399-37.877 15.617-58.284s-37.877-27.399-58.284-15.617l-54.308 31.355c-77.63-80.736-186.744-130.979-307.593-130.979-125.417 0-238.196 54.113-316.261 140.265l-45.64-26.35c-20.407-11.782-46.502-4.79-58.284 15.617s-4.79 46.502 15.617 58.284l37.31 21.541c-7.241 12.212-13.891 24.816-19.91 37.772l-38.734-22.363c-20.407-11.782-46.502-4.79-58.284 15.617s-4.79 46.502 15.617 58.284l53.061 30.635c-7.3 31.273-11.16 63.869-11.16 97.365 0 90.045 27.894 173.576 75.512 242.422l-20.829 169.236c-2.576 20.934 2.691 42.080 14.786 59.359 27.026 38.609 80.234 47.999 118.843 20.972l117.932-82.553zM299.235 775.248l-74.524 52.167 11.843-96.226c19.474 16.478 40.446 31.242 62.681 44.059zM724.759 775.251c22.234-12.815 43.204-27.578 62.677-44.054l11.842 96.217-74.519-52.163zM218.661 230.7l36.573 21.115c20.407 11.782 46.502 4.79 58.284-15.617s4.79-46.502-15.617-58.284l-26.117-15.078c61.677-61.1 146.539-98.836 240.216-98.836 89.038 0 170.113 34.091 230.884 89.933l-16.785 9.691c-20.407 11.782-27.399 37.877-15.617 58.284s37.877 27.399 58.284 15.617l30.037-17.342c7.706 11.912 14.69 24.335 20.89 37.206l-29.593 17.086c-20.407 11.782-27.399 37.877-15.617 58.284s37.877 27.399 58.284 15.617l14.34-8.279c4.087 21.116 6.227 42.926 6.227 65.237 0 188.513-152.82 341.333-341.333 341.333s-341.333-152.82-341.333-341.333c0-17.765 1.357-35.214 3.974-52.247l16.594 9.58c20.407 11.782 46.502 4.79 58.284-15.617s4.79-46.502-15.617-58.284l-34.782-20.081c5.735-13.112 12.269-25.794 19.542-37.984zM341.333 490.667c-23.564 0-42.667 19.103-42.667 42.667s19.103 42.667 42.667 42.667c23.564 0 42.667-19.103 42.667-42.667s-19.103-42.667-42.667-42.667zM682.667 490.667c-23.564 0-42.667 19.103-42.667 42.667s19.103 42.667 42.667 42.667c23.564 0 42.667-19.103 42.667-42.667s-19.103-42.667-42.667-42.667z" />
<glyph unicode="&#xe966;" glyph-name="cat-angry" data-tags="cat-angry" d="M469.66 442.692c-0.216 1.739-0.327 3.511-0.327 5.308 0 23.564 19.103 42.667 42.667 42.667s42.667-19.103 42.667-42.667c0-1.798-0.111-3.569-0.327-5.308 37.865-9.673 71.384-32.138 94.88-63.866 11.2-15.123 19.847-32.015 25.54-50.032 7.099-22.469-5.361-46.439-27.83-53.538s-46.439 5.361-53.538 27.83c-2.833 8.968-7.146 17.393-12.748 24.956-16.033 21.65-41.218 34.626-68.643 34.626s-52.61-12.976-68.643-34.626c-5.601-7.564-9.914-15.988-12.748-24.956-7.099-22.469-31.069-34.929-53.538-27.83s-34.929 31.069-27.83 53.538c5.693 18.017 14.34 34.909 25.54 50.032 23.496 31.728 57.015 54.193 94.88 63.866zM391.579 814.77c38.19 11.214 78.603 17.23 120.421 17.23 41.815 0 82.226-6.015 120.413-17.228l117.929 82.55c38.609 27.026 91.817 17.637 118.843-20.972 12.095-17.279 17.363-38.425 14.786-59.359l-20.827-169.221c47.624-68.849 75.522-152.384 75.522-242.436 0-37.983-4.963-74.806-14.276-109.857l56.177-32.434c20.407-11.782 27.399-37.877 15.617-58.284s-37.877-27.399-58.284-15.617l-44.126 25.476c-6.388-12.762-13.396-25.159-20.986-37.151l43.779-25.276c20.407-11.782 27.399-37.877 15.617-58.284s-37.877-27.399-58.284-15.617l-54.308 31.355c-77.63-80.736-186.744-130.979-307.593-130.979-125.417 0-238.196 54.113-316.261 140.265l-45.64-26.35c-20.407-11.782-46.502-4.79-58.284 15.617s-4.79 46.502 15.617 58.284l37.31 21.541c-7.241 12.212-13.891 24.816-19.91 37.772l-38.734-22.363c-20.407-11.782-46.502-4.79-58.284 15.617s-4.79 46.502 15.617 58.284l53.061 30.635c-7.3 31.273-11.16 63.869-11.16 97.365 0 90.045 27.894 173.576 75.512 242.422l-20.829 169.236c-2.576 20.934 2.691 42.080 14.786 59.359 27.026 38.609 80.234 47.999 118.843 20.972l117.932-82.553zM299.235 775.248l-74.524 52.167 11.843-96.226c19.474 16.478 40.446 31.242 62.681 44.059zM724.759 775.251c22.234-12.815 43.204-27.578 62.677-44.054l11.842 96.217-74.519-52.163zM218.661 230.7l36.573 21.115c20.407 11.782 46.502 4.79 58.284-15.617s4.79-46.502-15.617-58.284l-26.117-15.078c61.677-61.1 146.539-98.836 240.216-98.836 89.038 0 170.113 34.091 230.884 89.933l-16.785 9.691c-20.407 11.782-27.399 37.877-15.617 58.284s37.877 27.399 58.284 15.617l30.037-17.342c7.706 11.912 14.69 24.335 20.89 37.206l-29.593 17.086c-20.407 11.782-27.399 37.877-15.617 58.284s37.877 27.399 58.284 15.617l14.34-8.279c4.087 21.116 6.227 42.926 6.227 65.237 0 188.513-152.82 341.333-341.333 341.333s-341.333-152.82-341.333-341.333c0-17.765 1.357-35.214 3.974-52.247l16.594 9.58c20.407 11.782 46.502 4.79 58.284-15.617s4.79-46.502-15.617-58.284l-34.782-20.081c5.735-13.112 12.269-25.794 19.542-37.984zM659.081 495.171c-21.076-10.538-46.705-1.995-57.243 19.081s-1.995 46.705 19.081 57.243l42.667 21.333c21.076 10.538 46.705 1.995 57.243-19.081s1.995-46.705-19.081-57.243l-42.667-21.333zM322.252 516.504c-21.076 10.538-29.619 36.167-19.081 57.243s36.167 29.619 57.243 19.081l42.667-21.333c21.076-10.538 29.619-36.167 19.081-57.243s-36.167-29.619-57.243-19.081l-42.667 21.333z" />
<glyph unicode="&#xe967;" glyph-name="category" data-tags="category" d="M213.333 874.667h128c70.692 0 128-57.308 128-128v-128c0-70.692-57.308-128-128-128h-128c-70.692 0-128 57.308-128 128v128c0 70.692 57.308 128 128 128zM213.333 789.333c-23.564 0-42.667-19.103-42.667-42.667v-128c0-23.564 19.103-42.667 42.667-42.667h128c23.564 0 42.667 19.103 42.667 42.667v128c0 23.564-19.103 42.667-42.667 42.667h-128zM213.333 405.333h128c70.692 0 128-57.308 128-128v-128c0-70.692-57.308-128-128-128h-128c-70.692 0-128 57.308-128 128v128c0 70.692 57.308 128 128 128zM213.333 320c-23.564 0-42.667-19.103-42.667-42.667v-128c0-23.564 19.103-42.667 42.667-42.667h128c23.564 0 42.667 19.103 42.667 42.667v128c0 23.564-19.103 42.667-42.667 42.667h-128zM682.667 874.667h128c70.692 0 128-57.308 128-128v-128c0-70.692-57.308-128-128-128h-128c-70.692 0-128 57.308-128 128v128c0 70.692 57.308 128 128 128zM682.667 789.333c-23.564 0-42.667-19.103-42.667-42.667v-128c0-23.564 19.103-42.667 42.667-42.667h128c23.564 0 42.667 19.103 42.667 42.667v128c0 23.564-19.103 42.667-42.667 42.667h-128zM682.667 405.333h128c70.692 0 128-57.308 128-128v-128c0-70.692-57.308-128-128-128h-128c-70.692 0-128 57.308-128 128v128c0 70.692 57.308 128 128 128zM682.667 320c-23.564 0-42.667-19.103-42.667-42.667v-128c0-23.564 19.103-42.667 42.667-42.667h128c23.564 0 42.667 19.103 42.667 42.667v128c0 23.564-19.103 42.667-42.667 42.667h-128z" />
</font>
</defs>
</svg>
